<svg width="80" height="80" viewBox="0 0 80 80" fill="none" xmlns="http://www.w3.org/2000/svg">
<path d="M66.6667 30V16.6667H13.3334V30H66.6667ZM66.6667 36.6667H13.3334V63.3333H66.6667V36.6667ZM10 10H70C70.8841 10 71.7319 10.3512 72.357 10.9763C72.9822 11.6014 73.3334 12.4493 73.3334 13.3333V66.6667C73.3334 67.5507 72.9822 68.3986 72.357 69.0237C71.7319 69.6488 70.8841 70 70 70H10C9.11597 70 8.26812 69.6488 7.643 69.0237C7.01788 68.3986 6.66669 67.5507 6.66669 66.6667V13.3333C6.66669 12.4493 7.01788 11.6014 7.643 10.9763C8.26812 10.3512 9.11597 10 10 10ZM16.6667 40H26.6667V56.6667H16.6667V40ZM16.6667 20H23.3334V26.6667H16.6667V20ZM30 20H36.6667V26.6667H30V20Z" fill="#525252"/>
</svg>
