<svg width="81" height="80" viewBox="0 0 81 80" fill="none" xmlns="http://www.w3.org/2000/svg">
<path d="M37 63.3333V30H13.6667V63.3333H37ZM37 23.3333V13.3333C37 12.4493 37.3512 11.6014 37.9763 10.9763C38.6014 10.3512 39.4493 10 40.3333 10H70.3333C71.2174 10 72.0652 10.3512 72.6903 10.9763C73.3155 11.6014 73.6667 12.4493 73.6667 13.3333V66.6667C73.6667 67.5507 73.3155 68.3986 72.6903 69.0237C72.0652 69.6488 71.2174 70 70.3333 70H10.3333C9.44926 70 8.60142 69.6488 7.9763 69.0237C7.35117 68.3986 6.99998 67.5507 6.99998 66.6667V26.6667C6.99998 25.7826 7.35117 24.9348 7.9763 24.3096C8.60142 23.6845 9.44926 23.3333 10.3333 23.3333H37ZM43.6667 16.6667V63.3333H67V16.6667H43.6667ZM17 53.3333H33.6667V60H17V53.3333ZM47 53.3333H63.6667V60H47V53.3333ZM47 43.3333H63.6667V50H47V43.3333ZM47 33.3333H63.6667V40H47V33.3333ZM17 43.3333H33.6667V50H17V43.3333Z" fill="#525252"/>
</svg>
