<svg width="81" height="80" viewBox="0 0 81 80" fill="none" xmlns="http://www.w3.org/2000/svg">
<path d="M57 70.0002H23.6666C18.9441 70.0032 14.3728 68.3349 10.7623 65.2908C7.15173 62.2466 4.73488 58.0231 3.93966 53.3679C3.14444 48.7128 4.02217 43.9264 6.41741 39.8564C8.81266 35.7863 12.5709 32.6951 17.0266 31.1302C16.8757 27.9757 17.3667 24.8235 18.4698 21.8643C19.573 18.9052 21.2654 16.2008 23.4445 13.9149C25.6235 11.6291 28.244 9.80939 31.147 8.56606C34.05 7.32272 37.1752 6.68164 40.3333 6.68164C43.4914 6.68164 46.6166 7.32272 49.5196 8.56606C52.4227 9.80939 55.0431 11.6291 57.2222 13.9149C59.4012 16.2008 61.0936 18.9052 62.1968 21.8643C63.2999 24.8235 63.7909 27.9757 63.64 31.1302C68.0957 32.6951 71.854 35.7863 74.2492 39.8564C76.6445 43.9264 77.5222 48.7128 76.727 53.3679C75.9317 58.0231 73.5149 62.2466 69.9044 65.2908C66.2938 68.3349 61.7225 70.0032 57 70.0002ZM57 30.0002C57.0008 27.7769 56.5568 25.5759 55.6941 23.5268C54.8313 21.4776 53.5674 19.6219 51.9765 18.0687C50.3857 16.5155 48.5002 15.2963 46.431 14.4828C44.3619 13.6694 42.1508 13.2782 39.9282 13.3322C37.7055 13.3863 35.5161 13.8845 33.4889 14.7975C31.4618 15.7105 29.6377 17.0199 28.1243 18.6486C26.6108 20.2773 25.4385 22.1923 24.6764 24.2809C23.9143 26.3696 23.5778 28.5896 23.6866 30.8102L23.92 35.7702L19.24 37.4169C16.275 38.4654 13.7758 40.5278 12.1836 43.24C10.5915 45.9521 10.0087 49.1395 10.5382 52.2395C11.0677 55.3396 12.6754 58.1529 15.0775 60.1828C17.4797 62.2126 20.5217 63.3286 23.6666 63.3335H57C59.4544 63.3327 61.8611 62.6544 63.9547 61.3734C66.0483 60.0923 67.7477 58.2582 68.8657 56.0731C69.9836 53.888 70.4767 51.4368 70.2906 48.9893C70.1045 46.5419 69.2465 44.1934 67.811 42.2024C66.3756 40.2115 64.4184 38.6554 62.1552 37.7056C59.8919 36.7558 57.4104 36.4492 54.984 36.8195C52.5577 37.1898 50.2806 38.2227 48.4037 39.8043C46.5268 41.386 45.1229 43.455 44.3466 45.7835L38.02 43.6735C39.3494 39.6915 41.8976 36.2284 45.3038 33.7745C48.7101 31.3206 52.8019 30.0002 57 30.0002Z" fill="#525252"/>
</svg>
