<svg width="80" height="80" viewBox="0 0 80 80" fill="none" xmlns="http://www.w3.org/2000/svg">
<g clip-path="url(#clip0_240_1506)">
<path d="M18.21 14.7765C24.2586 9.5354 31.9966 6.65537 40 6.66654C58.41 6.66654 73.3334 21.5899 73.3334 39.9999C73.3334 47.1199 71.1 53.7199 67.3 59.1332L56.6667 39.9999H66.6667C66.6671 34.7719 65.1308 29.6592 62.2489 25.2974C59.367 20.9356 55.2665 17.5171 50.4573 15.4669C45.6481 13.4168 40.3424 12.8255 35.1999 13.7666C30.0574 14.7077 25.3049 17.1395 21.5334 20.7599L18.21 14.7765ZM61.79 65.2232C55.7415 70.4643 48.0034 73.3444 40 73.3332C21.59 73.3332 6.66669 58.4099 6.66669 39.9999C6.66669 32.8799 8.90002 26.2799 12.7 20.8665L23.3334 39.9999H13.3334C13.3329 45.2278 14.8692 50.3405 17.7511 54.7024C20.6331 59.0642 24.7336 62.4827 29.5428 64.5328C34.3519 66.5829 39.6576 67.1742 44.8002 66.2331C49.9427 65.2921 54.6952 62.8602 58.4667 59.2399L61.79 65.2232Z" fill="#525252"/>
</g>
<defs>
<clipPath id="clip0_240_1506">
<rect width="80" height="80" fill="white"/>
</clipPath>
</defs>
</svg>
