<svg width="81" height="80" viewBox="0 0 81 80" fill="none" xmlns="http://www.w3.org/2000/svg">
<path d="M40.6667 36.667C45.0869 36.667 49.3262 38.4229 52.4518 41.5485C55.5774 44.6742 57.3333 48.9134 57.3333 53.3337V73.3337H50.6667V53.3337C50.6668 50.783 49.6922 48.3286 47.9424 46.4728C46.1925 44.617 43.7996 43.5 41.2533 43.3503L40.6667 43.3337C38.116 43.3335 35.6616 44.3081 33.8058 46.0579C31.95 47.8078 30.833 50.2007 30.6833 52.747L30.6667 53.3337V73.3337H24V53.3337C24 48.9134 25.7559 44.6742 28.8815 41.5485C32.0072 38.4229 36.2464 36.667 40.6667 36.667ZM19 46.667C19.93 46.667 20.8333 46.777 21.7 46.9803C21.1301 48.677 20.7926 50.4431 20.6967 52.2303L20.6667 53.3337V53.6203C20.2835 53.4832 19.885 53.3937 19.48 53.3537L19 53.3337C17.7571 53.3337 16.5587 53.7967 15.6386 54.6324C14.7185 55.4681 14.1427 56.6165 14.0233 57.8537L14 58.3337V73.3337H7.33333V58.3337C7.33333 55.2395 8.56249 52.272 10.7504 50.0841C12.9383 47.8962 15.9058 46.667 19 46.667ZM62.3333 46.667C65.4275 46.667 68.395 47.8962 70.5829 50.0841C72.7708 52.272 74 55.2395 74 58.3337V73.3337H67.3333V58.3337C67.3333 57.0907 66.8703 55.8924 66.0346 54.9723C65.1989 54.0522 64.0505 53.4763 62.8133 53.357L62.3333 53.3337C61.75 53.3337 61.19 53.4337 60.6667 53.617V53.3337C60.6667 51.1137 60.3067 48.9803 59.6367 46.987C60.5 46.777 61.4033 46.667 62.3333 46.667ZM19 26.667C21.2101 26.667 23.3297 27.545 24.8926 29.1078C26.4554 30.6706 27.3333 32.7902 27.3333 35.0003C27.3333 37.2105 26.4554 39.3301 24.8926 40.8929C23.3297 42.4557 21.2101 43.3337 19 43.3337C16.7899 43.3337 14.6702 42.4557 13.1074 40.8929C11.5446 39.3301 10.6667 37.2105 10.6667 35.0003C10.6667 32.7902 11.5446 30.6706 13.1074 29.1078C14.6702 27.545 16.7899 26.667 19 26.667ZM62.3333 26.667C64.5435 26.667 66.6631 27.545 68.2259 29.1078C69.7887 30.6706 70.6667 32.7902 70.6667 35.0003C70.6667 37.2105 69.7887 39.3301 68.2259 40.8929C66.6631 42.4557 64.5435 43.3337 62.3333 43.3337C60.1232 43.3337 58.0036 42.4557 56.4408 40.8929C54.878 39.3301 54 37.2105 54 35.0003C54 32.7902 54.878 30.6706 56.4408 29.1078C58.0036 27.545 60.1232 26.667 62.3333 26.667ZM19 33.3337C18.558 33.3337 18.134 33.5093 17.8215 33.8218C17.5089 34.1344 17.3333 34.5583 17.3333 35.0003C17.3333 35.4424 17.5089 35.8663 17.8215 36.1788C18.134 36.4914 18.558 36.667 19 36.667C19.442 36.667 19.8659 36.4914 20.1785 36.1788C20.4911 35.8663 20.6667 35.4424 20.6667 35.0003C20.6667 34.5583 20.4911 34.1344 20.1785 33.8218C19.8659 33.5093 19.442 33.3337 19 33.3337ZM62.3333 33.3337C61.8913 33.3337 61.4674 33.5093 61.1548 33.8218C60.8423 34.1344 60.6667 34.5583 60.6667 35.0003C60.6667 35.4424 60.8423 35.8663 61.1548 36.1788C61.4674 36.4914 61.8913 36.667 62.3333 36.667C62.7754 36.667 63.1993 36.4914 63.5118 36.1788C63.8244 35.8663 64 35.4424 64 35.0003C64 34.5583 63.8244 34.1344 63.5118 33.8218C63.1993 33.5093 62.7754 33.3337 62.3333 33.3337ZM40.6667 6.66699C44.2029 6.66699 47.5943 8.07175 50.0948 10.5722C52.5952 13.0727 54 16.4641 54 20.0003C54 23.5365 52.5952 26.9279 50.0948 29.4284C47.5943 31.9289 44.2029 33.3337 40.6667 33.3337C37.1304 33.3337 33.7391 31.9289 31.2386 29.4284C28.7381 26.9279 27.3333 23.5365 27.3333 20.0003C27.3333 16.4641 28.7381 13.0727 31.2386 10.5722C33.7391 8.07175 37.1304 6.66699 40.6667 6.66699ZM40.6667 13.3337C38.8986 13.3337 37.2029 14.036 35.9526 15.2863C34.7024 16.5365 34 18.2322 34 20.0003C34 21.7684 34.7024 23.4641 35.9526 24.7144C37.2029 25.9646 38.8986 26.667 40.6667 26.667C42.4348 26.667 44.1305 25.9646 45.3807 24.7144C46.631 23.4641 47.3333 21.7684 47.3333 20.0003C47.3333 18.2322 46.631 16.5365 45.3807 15.2863C44.1305 14.036 42.4348 13.3337 40.6667 13.3337Z" fill="#525252"/>
</svg>
