<svg width="48" height="80" viewBox="0 0 48 80" fill="none" xmlns="http://www.w3.org/2000/svg">
<g clip-path="url(#clip0_13_7174)">
<path d="M13.2903 54.0408L13.8038 54.6234L39.7377 61.9723L39.8552 57.417L21.6921 52.8606L20.8033 52.54L13.2903 54.0408Z" fill="#B7CA9D"/>
<path d="M65.9091 54.0416L39.423 62.8795L39.3442 57.4178L57.5071 52.8613L58.2987 51.9707L65.9091 54.0416Z" fill="#B7CA9D"/>
<path d="M39.3442 22.821L57.5071 27.0527L65.495 26.6739L65.9091 25.8736L40.6028 16.7676L39.3442 22.821Z" fill="#3C4929"/>
<path d="M21.6919 52.8605L13.2902 54.0407L13.0563 53.1687V26.7913L13.2902 25.873L20.8819 26.4375L21.6919 27.0531V52.8605Z" fill="#759C3E"/>
<path d="M39.8552 22.8212L21.6921 27.0529L13.2903 25.8738L13.607 25.3768L39.7377 17.9424L39.8552 22.8212Z" fill="#3C4929"/>
<path d="M39.5637 3.20508L9.39899 18.4257L9.41338 61.4977L39.5637 76.7102L40.0129 76.0283V4.08957L39.5637 3.20508ZM30.7431 59.2772L13.29 54.041V25.8733L30.7431 20.639V59.2772ZM57.5071 52.8608L65.9091 54.041L66.3798 53.2084V26.6736L65.9091 25.8733L57.5071 27.0534V52.8608Z" fill="#4B612C"/>
<path d="M39.5645 76.7102L69.7874 61.4986L69.8018 18.4269L39.5645 3.20508V76.7102ZM48.4565 20.639L65.9099 25.8733V54.041L48.4565 59.2772V20.639Z" fill="#759C3E"/>
</g>
<defs>
<clipPath id="clip0_13_7174">
<rect width="60.4021" height="73.5999" fill="white" transform="translate(9.3988 3.2002)"/>
</clipPath>
</defs>
</svg>
