<svg width="80" height="80" viewBox="0 0 80 80" fill="none" xmlns="http://www.w3.org/2000/svg">
<path d="M37.2492 65.1632C46.7051 63.4928 54.5151 62.1105 54.6048 62.0915L54.7679 62.0569L45.8406 51.4382C40.9306 45.5979 36.9133 40.7968 36.9133 40.7691C36.9133 40.7167 46.1315 15.3318 46.1833 15.2415C46.2007 15.2113 52.4739 26.0419 61.3901 41.4956C69.7376 55.9636 76.6197 67.8926 76.6837 68.0044L76.8 68.2076L48.4283 68.2039L20.0567 68.2003L37.2492 65.1632ZM3.20001 61.925C3.20001 61.91 7.40651 54.6079 12.5478 45.698L21.8956 29.4982L32.7893 20.3561C38.7809 15.328 43.6992 11.2079 43.7189 11.2004C43.7386 11.1929 43.6598 11.3913 43.5438 11.6412C43.4277 11.8912 38.1046 23.3087 31.7147 37.0134L20.0966 61.931L11.6483 61.9416C7.00175 61.9474 3.20001 61.9399 3.20001 61.925Z" fill="#0089D6"/>
</svg>
