<svg width="80" height="80" viewBox="0 0 80 80" fill="none" xmlns="http://www.w3.org/2000/svg">
<path d="M39.5739 69.3859L18.3334 63.4894L13.6001 10.3994H65.6113L60.873 63.4811L39.5739 69.3859Z" fill="#264DE4"/>
<path d="M56.8164 60.1009L60.8656 14.7402H39.6057V64.8724L56.8164 60.1009Z" fill="#2965F1"/>
<path d="M24.4512 34.4307L25.0347 40.9419H39.6057V34.4307H24.4512Z" fill="#EBEBEB"/>
<path d="M23.2786 21.252L23.8705 27.7633H39.6058V21.252H23.2786Z" fill="#EBEBEB"/>
<path d="M39.6058 51.3408L39.5772 51.3484L32.3256 49.3903L31.862 44.1973H25.3257L26.238 54.4209L39.5758 58.1236L39.6058 58.1153V51.3408Z" fill="#EBEBEB"/>
<path d="M54.7184 34.4309L55.8939 21.252H39.5831V27.7633H48.7581L48.1657 34.4309H39.5831V40.9421H47.601L46.8452 49.3867L39.5831 51.3468V58.121L52.9316 54.4215L53.0295 53.3214L54.5596 36.1794L54.7184 34.4309Z" fill="white"/>
</svg>
