<svg width="80" height="80" viewBox="0 0 80 80" fill="none" xmlns="http://www.w3.org/2000/svg">
<path d="M65.6113 10.3994L60.8729 63.4811L39.5738 69.3859L18.3333 63.4894L13.6 10.3994H65.6113Z" fill="#E44D26"/>
<path d="M39.6056 64.8724L56.8163 60.1009L60.8656 14.7402H39.6056V64.8724Z" fill="#F16529"/>
<path d="M30.3945 27.7633H39.6056V21.252H23.2785L23.4343 22.9988L25.0347 40.9421H39.6056V34.4309H30.9895L30.3945 27.7633Z" fill="#EBEBEB"/>
<path d="M31.8619 44.1973H25.3256L26.2378 54.4209L39.5757 58.1236L39.6057 58.1153V51.3408L39.5771 51.3484L32.3255 49.3903L31.8619 44.1973Z" fill="#EBEBEB"/>
<path d="M39.5831 40.9419H47.601L46.8452 49.3865L39.5831 51.3466V58.1207L52.9316 54.4212L53.0295 53.3212L54.5596 36.1791L54.7185 34.4307H39.5831V40.9419Z" fill="white"/>
<path d="M39.5831 27.7474V27.7633H55.3109L55.4416 26.2997L55.7382 22.9988L55.894 21.252H39.5831V27.7474Z" fill="white"/>
</svg>
