<svg width="80" height="80" viewBox="0 0 80 80" fill="none" xmlns="http://www.w3.org/2000/svg">
<path d="M3.20001 3.2002H76.8V76.8002H3.20001V3.2002Z" fill="#F7DF1E"/>
<path d="M22.5521 64.7053L28.1845 61.2967C29.2711 63.2232 30.2596 64.8533 32.6305 64.8533C34.9033 64.8533 36.3361 63.9642 36.3361 60.5062V36.9893H43.2526V60.604C43.2526 67.7677 39.0535 71.0284 32.927 71.0284C27.3941 71.0284 24.1823 68.1628 22.552 64.7047" fill="black"/>
<path d="M47.0096 63.965L52.6413 60.7043C54.1238 63.1254 56.0506 64.9039 59.4593 64.9039C62.3252 64.9039 64.1527 63.471 64.1527 61.4948C64.1527 59.1233 62.2754 58.2834 59.1134 56.9005L57.3847 56.1589C52.3945 54.0349 49.0843 51.3671 49.0843 45.7348C49.0843 40.5473 53.0366 36.5947 59.2125 36.5947C63.6095 36.5947 66.7714 38.1264 69.0438 42.1283L63.6586 45.5864C62.4728 43.4622 61.1887 42.6225 59.2126 42.6225C57.1869 42.6225 55.9023 43.9069 55.9023 45.5864C55.9023 47.6615 57.1869 48.5016 60.1509 49.7862L61.8799 50.5272C67.7592 53.047 71.0694 55.6158 71.0694 61.3959C71.0694 67.6213 66.1784 71.0299 59.6077 71.0299C53.1851 71.0299 49.035 67.967 47.0097 63.965" fill="black"/>
</svg>
