<?xml version="1.0" encoding="UTF-8"?>
<svg xmlns="http://www.w3.org/2000/svg" xmlns:xlink="http://www.w3.org/1999/xlink" width="80px" height="80px" viewBox="0 0 80 80" version="1.1">
<g id="surface1">
<path style=" stroke:none;fill-rule:nonzero;fill:rgb(7.450981%,66.666669%,32.156864%);fill-opacity:1;" d="M 80 40 C 80 17.910156 62.089844 0 40 0 C 17.910156 0 0 17.910156 0 40 C 0 62.089844 17.910156 80 40 80 C 62.089844 80 80 62.089844 80 40 Z M 80 40 "/>
<path style=" stroke:none;fill-rule:nonzero;fill:rgb(100%,100%,100%);fill-opacity:1;" d="M 50.691406 35.113281 C 48.164062 23.960938 42.195312 20.296875 41.550781 18.894531 C 40.847656 17.90625 40.136719 16.148438 40.136719 16.148438 C 40.125 16.117188 40.105469 16.066406 40.082031 16.015625 C 40.011719 17.003906 39.972656 17.386719 39.039062 18.382812 C 37.59375 19.511719 30.167969 25.742188 29.566406 38.410156 C 29 50.226562 38.101562 57.265625 39.332031 58.164062 L 39.46875 58.265625 L 39.46875 58.253906 C 39.476562 58.316406 39.859375 61.066406 40.128906 63.984375 L 41.09375 63.984375 C 41.320312 61.921875 41.660156 59.875 42.109375 57.851562 L 42.1875 57.800781 C 42.738281 57.40625 43.261719 56.976562 43.757812 56.515625 L 43.816406 56.464844 C 46.429688 54.046875 51.132812 48.457031 51.085938 39.546875 C 51.078125 38.058594 50.945312 36.578125 50.691406 35.113281 Z M 40.027344 51.492188 C 40.027344 51.492188 40.027344 34.921875 40.574219 34.925781 C 41 34.925781 41.554688 56.300781 41.554688 56.300781 C 40.792969 56.210938 40.027344 52.78125 40.027344 51.492188 Z M 40.027344 51.492188 "/>
</g>
</svg>
