<?xml version="1.0" encoding="UTF-8"?>
<svg xmlns="http://www.w3.org/2000/svg" xmlns:xlink="http://www.w3.org/1999/xlink" width="80px" height="80px" viewBox="0 0 80 80" version="1.1">
<g id="surface1">
<path style=" stroke:none;fill-rule:nonzero;fill:rgb(36.470589%,52.941179%,63.137257%);fill-opacity:1;" d="M 24.488281 57.058594 L 22.324219 57.058594 C 22.246094 53.402344 22.035156 49.964844 21.691406 46.746094 L 21.671875 46.746094 L 18.375 57.058594 L 16.722656 57.058594 L 13.445312 46.746094 L 13.425781 46.746094 C 13.183594 49.835938 13.03125 53.273438 12.96875 57.058594 L 10.992188 57.058594 C 11.121094 52.457031 11.441406 48.144531 11.953125 44.117188 L 14.636719 44.117188 L 17.761719 53.625 L 17.78125 53.625 L 20.921875 44.117188 L 23.492188 44.117188 C 24.054688 48.832031 24.386719 53.148438 24.488281 57.058594 M 33.882812 47.511719 C 33 52.296875 31.835938 55.773438 30.390625 57.941406 C 29.265625 59.613281 28.035156 60.449219 26.691406 60.449219 C 26.335938 60.449219 25.894531 60.34375 25.371094 60.128906 L 25.371094 58.972656 C 25.625 59.011719 25.925781 59.03125 26.269531 59.03125 C 26.898438 59.03125 27.402344 58.859375 27.785156 58.515625 C 28.246094 58.09375 28.476562 57.621094 28.476562 57.097656 C 28.476562 56.738281 28.296875 56.003906 27.9375 54.890625 L 25.5625 47.511719 L 27.6875 47.511719 L 29.394531 53.03125 C 29.777344 54.285156 29.9375 55.160156 29.875 55.65625 C 30.808594 53.164062 31.457031 50.449219 31.828125 47.507812 L 33.882812 47.507812 Z M 33.882812 47.511719 "/>
<path style=" stroke:none;fill-rule:nonzero;fill:rgb(97.254902%,59.607846%,11.372549%);fill-opacity:1;" d="M 62.710938 57.058594 L 56.558594 57.058594 L 56.558594 44.117188 L 58.628906 44.117188 L 58.628906 55.464844 L 62.710938 55.464844 Z M 54.949219 57.371094 L 52.570312 56.195312 C 52.78125 56.023438 52.980469 55.835938 53.164062 55.617188 C 54.175781 54.429688 54.679688 52.675781 54.679688 50.347656 C 54.679688 46.066406 53 43.925781 49.636719 43.925781 C 47.988281 43.925781 46.703125 44.46875 45.785156 45.554688 C 44.773438 46.742188 44.269531 48.492188 44.269531 50.808594 C 44.269531 53.082031 44.71875 54.75 45.609375 55.808594 C 46.429688 56.769531 47.664062 57.25 49.3125 57.25 C 49.925781 57.25 50.492188 57.171875 51.007812 57.019531 L 54.101562 58.824219 Z M 47.242188 54.46875 C 46.71875 53.625 46.457031 52.273438 46.457031 50.40625 C 46.457031 47.148438 47.445312 45.515625 49.425781 45.515625 C 50.464844 45.515625 51.222656 45.90625 51.707031 46.683594 C 52.230469 47.53125 52.496094 48.871094 52.496094 50.710938 C 52.496094 53.996094 51.503906 55.636719 49.523438 55.636719 C 48.488281 55.640625 47.726562 55.25 47.242188 54.46875 M 43.367188 53.472656 C 43.367188 54.570312 42.964844 55.46875 42.160156 56.171875 C 41.355469 56.875 40.277344 57.226562 38.921875 57.226562 C 37.65625 57.226562 36.429688 56.824219 35.242188 56.019531 L 35.796875 54.910156 C 36.820312 55.421875 37.746094 55.675781 38.578125 55.675781 C 39.355469 55.675781 39.964844 55.5 40.40625 55.160156 C 40.847656 54.816406 41.113281 54.332031 41.113281 53.722656 C 41.113281 52.953125 40.578125 52.296875 39.59375 51.746094 C 38.6875 51.246094 36.871094 50.207031 36.871094 50.207031 C 35.890625 49.488281 35.398438 48.722656 35.398438 47.453125 C 35.398438 46.40625 35.765625 45.558594 36.5 44.914062 C 37.234375 44.265625 38.183594 43.945312 39.34375 43.945312 C 40.546875 43.945312 41.640625 44.265625 42.621094 44.902344 L 42.125 46.015625 C 41.28125 45.65625 40.453125 45.480469 39.632812 45.480469 C 38.96875 45.480469 38.457031 45.640625 38.101562 45.960938 C 37.742188 46.277344 37.519531 46.6875 37.519531 47.1875 C 37.519531 47.953125 38.066406 48.617188 39.078125 49.179688 C 39.996094 49.675781 41.855469 50.738281 41.855469 50.738281 C 42.863281 51.453125 43.367188 52.214844 43.367188 53.472656 "/>
<path style=" stroke:none;fill-rule:nonzero;fill:rgb(36.470589%,52.941179%,63.137257%);fill-opacity:1;" d="M 65.308594 39.785156 C 64.058594 39.75 63.089844 39.878906 62.273438 40.222656 C 62.039062 40.316406 61.667969 40.316406 61.632812 40.613281 C 61.761719 40.738281 61.777344 40.941406 61.886719 41.113281 C 62.074219 41.425781 62.402344 41.847656 62.699219 42.066406 C 63.027344 42.316406 63.355469 42.566406 63.699219 42.785156 C 64.308594 43.160156 64.996094 43.378906 65.589844 43.753906 C 65.9375 43.972656 66.277344 44.253906 66.625 44.488281 C 66.792969 44.613281 66.902344 44.816406 67.125 44.894531 L 67.125 44.847656 C 67.011719 44.707031 66.980469 44.503906 66.875 44.347656 L 66.402344 43.894531 C 65.949219 43.285156 65.386719 42.753906 64.777344 42.316406 C 64.277344 41.972656 63.183594 41.503906 62.980469 40.925781 L 62.949219 40.894531 C 63.292969 40.863281 63.699219 40.738281 64.027344 40.640625 C 64.558594 40.5 65.042969 40.535156 65.589844 40.394531 C 65.839844 40.332031 66.089844 40.25 66.34375 40.175781 L 66.34375 40.035156 C 66.058594 39.75 65.859375 39.378906 65.558594 39.109375 C 64.765625 38.421875 63.886719 37.75 62.980469 37.1875 C 62.496094 36.875 61.871094 36.671875 61.351562 36.40625 C 61.167969 36.3125 60.851562 36.265625 60.742188 36.109375 C 60.464844 35.765625 60.304688 35.3125 60.101562 34.90625 C 59.648438 34.046875 59.210938 33.09375 58.820312 32.183594 C 58.539062 31.574219 58.367188 30.964844 58.023438 30.402344 C 56.410156 27.746094 54.664062 26.136719 51.972656 24.554688 C 51.394531 24.226562 50.707031 24.085938 49.972656 23.914062 L 48.800781 23.851562 C 48.550781 23.742188 48.296875 23.445312 48.082031 23.304688 C 47.1875 22.742188 44.890625 21.523438 44.234375 23.132812 C 43.8125 24.148438 44.859375 25.148438 45.21875 25.664062 C 45.484375 26.023438 45.828125 26.429688 46.015625 26.839844 C 46.125 27.105469 46.15625 27.386719 46.265625 27.667969 C 46.515625 28.355469 46.75 29.121094 47.078125 29.761719 C 47.25 30.089844 47.4375 30.433594 47.65625 30.730469 C 47.785156 30.902344 48 30.980469 48.050781 31.261719 C 47.832031 31.574219 47.8125 32.042969 47.6875 32.433594 C 47.125 34.203125 47.347656 36.390625 48.144531 37.6875 C 48.394531 38.078125 48.988281 38.9375 49.785156 38.609375 C 50.488281 38.328125 50.332031 37.4375 50.535156 36.65625 C 50.582031 36.46875 50.550781 36.34375 50.644531 36.21875 L 50.644531 36.25 C 50.863281 36.6875 51.082031 37.109375 51.285156 37.546875 C 51.769531 38.3125 52.613281 39.109375 53.320312 39.640625 C 53.691406 39.921875 53.988281 40.40625 54.460938 40.582031 L 54.460938 40.535156 L 54.429688 40.535156 C 54.332031 40.394531 54.195312 40.332031 54.070312 40.222656 C 53.789062 39.941406 53.476562 39.597656 53.257812 39.285156 C 52.601562 38.40625 52.019531 37.4375 51.507812 36.4375 C 51.253906 35.953125 51.035156 35.421875 50.832031 34.9375 C 50.738281 34.75 50.738281 34.46875 50.582031 34.375 C 50.347656 34.71875 50.003906 35.015625 49.832031 35.433594 C 49.535156 36.109375 49.503906 36.9375 49.394531 37.796875 L 49.332031 37.828125 C 48.835938 37.703125 48.660156 37.1875 48.472656 36.75 C 48.003906 35.640625 47.925781 33.855469 48.332031 32.574219 C 48.441406 32.246094 48.910156 31.214844 48.722656 30.902344 C 48.628906 30.605469 48.316406 30.433594 48.144531 30.199219 C 47.941406 29.902344 47.722656 29.527344 47.582031 29.199219 C 47.207031 28.324219 47.015625 27.351562 46.613281 26.480469 C 46.425781 26.070312 46.097656 25.648438 45.832031 25.273438 C 45.535156 24.851562 45.207031 24.554688 44.96875 24.054688 C 44.890625 23.882812 44.78125 23.601562 44.90625 23.414062 C 44.9375 23.289062 45.003906 23.242188 45.128906 23.210938 C 45.328125 23.039062 45.910156 23.257812 46.113281 23.351562 C 46.691406 23.585938 47.175781 23.804688 47.660156 24.132812 C 47.878906 24.289062 48.113281 24.585938 48.394531 24.664062 L 48.722656 24.664062 C 49.222656 24.773438 49.785156 24.695312 50.253906 24.835938 C 51.082031 25.101562 51.832031 25.492188 52.507812 25.914062 C 54.554688 27.214844 56.242188 29.058594 57.382812 31.261719 C 57.570312 31.621094 57.648438 31.949219 57.820312 32.324219 C 58.148438 33.089844 58.558594 33.875 58.882812 34.625 C 59.210938 35.359375 59.527344 36.109375 59.996094 36.71875 C 60.230469 37.046875 61.167969 37.21875 61.589844 37.390625 C 61.902344 37.53125 62.386719 37.65625 62.667969 37.828125 C 63.199219 38.15625 63.730469 38.53125 64.230469 38.890625 C 64.480469 39.078125 65.261719 39.46875 65.308594 39.785156 M 49.359375 26.195312 C 49.144531 26.195312 48.929688 26.222656 48.722656 26.273438 L 48.722656 26.308594 L 48.75 26.308594 C 48.878906 26.554688 49.097656 26.730469 49.25 26.949219 C 49.378906 27.199219 49.488281 27.445312 49.609375 27.699219 L 49.640625 27.667969 C 49.859375 27.511719 49.972656 27.261719 49.972656 26.882812 C 49.875 26.773438 49.859375 26.667969 49.78125 26.554688 C 49.691406 26.398438 49.488281 26.320312 49.359375 26.195312 "/>
<path style=" stroke:none;fill-rule:nonzero;fill:rgb(97.254902%,59.607846%,11.372549%);fill-opacity:1;" d="M 66.796875 57.054688 L 67.121094 57.054688 L 67.121094 55.46875 L 66.636719 55.46875 L 66.238281 56.550781 L 65.808594 55.46875 L 65.339844 55.46875 L 65.339844 57.054688 L 65.648438 57.054688 L 65.648438 55.847656 L 65.664062 55.847656 L 66.117188 57.054688 L 66.347656 57.054688 L 66.796875 55.847656 Z M 64.1875 57.054688 L 64.53125 57.054688 L 64.53125 55.738281 L 64.980469 55.738281 L 64.980469 55.46875 L 63.722656 55.46875 L 63.722656 55.738281 L 64.1875 55.738281 Z M 64.1875 57.054688 "/>
</g>
</svg>
