<?xml version="1.0" encoding="UTF-8"?>
<svg xmlns="http://www.w3.org/2000/svg" xmlns:xlink="http://www.w3.org/1999/xlink" width="80px" height="80px" viewBox="0 0 80 80" version="1.1">
<g id="surface1">
<path style=" stroke:none;fill-rule:nonzero;fill:rgb(54.901963%,78.431374%,29.411766%);fill-opacity:1;" d="M 36.738281 1.015625 C 38.714844 -0.113281 41.285156 -0.121094 43.257812 1.015625 C 53.1875 6.625 63.117188 12.226562 73.042969 17.839844 C 74.910156 18.890625 76.160156 20.96875 76.140625 23.121094 L 76.140625 56.871094 C 76.15625 59.109375 74.78125 61.238281 72.8125 62.265625 C 62.917969 67.84375 53.027344 73.429688 43.132812 79.007812 C 41.117188 80.160156 38.496094 80.070312 36.542969 78.824219 C 33.574219 77.105469 30.601562 75.394531 27.636719 73.675781 C 27.03125 73.3125 26.347656 73.027344 25.917969 72.4375 C 26.296875 71.929688 26.972656 71.867188 27.523438 71.640625 C 28.761719 71.25 29.898438 70.617188 31.035156 70.003906 C 31.324219 69.804688 31.675781 69.882812 31.953125 70.058594 C 34.488281 71.511719 37.003906 73.007812 39.546875 74.449219 C 40.089844 74.761719 40.640625 74.347656 41.105469 74.089844 C 50.816406 68.601562 60.535156 63.132812 70.246094 57.644531 C 70.605469 57.46875 70.804688 57.089844 70.773438 56.695312 C 70.78125 45.5625 70.777344 34.425781 70.777344 23.292969 C 70.820312 22.84375 70.558594 22.433594 70.15625 22.25 C 60.296875 16.699219 50.441406 11.136719 40.582031 5.582031 C 40.230469 5.339844 39.769531 5.339844 39.417969 5.582031 C 29.558594 11.136719 19.707031 16.703125 9.847656 22.257812 C 9.445312 22.441406 9.175781 22.84375 9.222656 23.292969 C 9.222656 34.425781 9.222656 45.5625 9.222656 56.695312 C 9.1875 57.089844 9.402344 57.464844 9.757812 57.632812 C 12.390625 59.125 15.023438 60.605469 17.65625 62.09375 C 19.140625 62.890625 20.960938 63.367188 22.59375 62.753906 C 24.035156 62.238281 25.046875 60.765625 25.019531 59.234375 C 25.03125 48.167969 25.011719 37.097656 25.03125 26.03125 C 24.992188 25.539062 25.460938 25.132812 25.9375 25.179688 C 27.203125 25.171875 28.46875 25.160156 29.730469 25.183594 C 30.257812 25.171875 30.621094 25.699219 30.558594 26.195312 C 30.550781 37.332031 30.570312 48.472656 30.546875 59.609375 C 30.550781 62.578125 29.332031 65.808594 26.585938 67.261719 C 23.203125 69.011719 19.023438 68.640625 15.679688 66.960938 C 12.789062 65.515625 10.027344 63.8125 7.183594 62.265625 C 5.210938 61.246094 3.84375 59.109375 3.859375 56.871094 L 3.859375 23.121094 C 3.839844 20.925781 5.136719 18.808594 7.0625 17.773438 C 16.957031 12.1875 26.847656 6.601562 36.738281 1.015625 Z M 36.738281 1.015625 "/>
<path style=" stroke:none;fill-rule:nonzero;fill:rgb(54.901963%,78.431374%,29.411766%);fill-opacity:1;" d="M 45.371094 24.394531 C 49.683594 24.117188 54.304688 24.230469 58.1875 26.355469 C 61.191406 27.984375 62.859375 31.402344 62.914062 34.742188 C 62.828125 35.195312 62.359375 35.441406 61.925781 35.410156 C 60.675781 35.410156 59.421875 35.429688 58.171875 35.402344 C 57.640625 35.421875 57.332031 34.933594 57.265625 34.464844 C 56.90625 32.867188 56.035156 31.28125 54.53125 30.511719 C 52.222656 29.355469 49.542969 29.414062 47.027344 29.4375 C 45.1875 29.535156 43.210938 29.695312 41.65625 30.777344 C 40.460938 31.59375 40.097656 33.246094 40.523438 34.578125 C 40.925781 35.535156 42.027344 35.84375 42.929688 36.128906 C 48.128906 37.488281 53.640625 37.351562 58.742188 39.140625 C 60.855469 39.871094 62.917969 41.289062 63.640625 43.5 C 64.585938 46.464844 64.171875 50.007812 62.066406 52.386719 C 60.355469 54.34375 57.863281 55.410156 55.382812 55.988281 C 52.078125 56.722656 48.648438 56.742188 45.292969 56.414062 C 42.136719 56.054688 38.855469 55.226562 36.417969 53.078125 C 34.335938 51.269531 33.316406 48.449219 33.417969 45.730469 C 33.445312 45.273438 33.902344 44.953125 34.339844 44.988281 C 35.601562 44.980469 36.863281 44.976562 38.121094 44.992188 C 38.625 44.953125 39 45.390625 39.027344 45.863281 C 39.257812 47.386719 39.832031 48.984375 41.15625 49.886719 C 43.71875 51.539062 46.933594 51.429688 49.871094 51.472656 C 52.300781 51.367188 55.027344 51.332031 57.011719 49.726562 C 58.058594 48.8125 58.367188 47.277344 58.085938 45.957031 C 57.777344 44.84375 56.613281 44.328125 55.613281 43.988281 C 50.480469 42.363281 44.910156 42.953125 39.824219 41.117188 C 37.761719 40.386719 35.765625 39.007812 34.972656 36.886719 C 33.867188 33.886719 34.375 30.175781 36.703125 27.875 C 38.972656 25.589844 42.253906 24.710938 45.371094 24.394531 Z M 45.371094 24.394531 "/>
</g>
</svg>
