<svg width="80" height="80" viewBox="0 0 80 80" fill="none" xmlns="http://www.w3.org/2000/svg">
<path d="M63.714 28.4245C62.9505 28.1617 62.1593 27.913 61.3447 27.6779C61.4786 27.1315 61.6015 26.5921 61.7107 26.0619C63.5042 17.3561 62.3316 10.3426 58.3274 8.03351C54.4878 5.81936 48.2085 8.12797 41.8667 13.647C41.2569 14.1777 40.6453 14.7396 40.0341 15.3285C39.6268 14.9389 39.2201 14.5624 38.8145 14.2022C32.1681 8.3009 25.5062 5.81399 21.5059 8.1298C17.67 10.3504 16.534 16.9437 18.1484 25.1943C18.3043 25.9912 18.4865 26.805 18.6926 27.6324C17.7498 27.9001 16.8395 28.1854 15.9686 28.4889C8.17643 31.2056 3.2 35.4634 3.2 39.8797C3.2 44.441 8.5422 49.016 16.6583 51.7901C17.2988 52.009 17.9634 52.216 18.6483 52.4125C18.426 53.3074 18.2327 54.1844 18.0703 55.0397C16.531 63.1471 17.7331 69.5847 21.5588 71.7912C25.5104 74.07 32.1422 71.7277 38.5999 66.0828C39.1103 65.6366 39.6226 65.1634 40.1357 64.6674C40.8008 65.3079 41.4649 65.9141 42.1255 66.4827C48.3805 71.8654 54.5584 74.0389 58.3805 71.8262C62.3282 69.5409 63.6111 62.6254 61.9455 54.2116C61.8183 53.5691 61.6703 52.9126 61.504 52.2444C61.9697 52.1068 62.427 51.9646 62.8728 51.8168C71.3103 49.0213 76.8 44.5019 76.8 39.8797C76.8 35.4474 71.6631 31.161 63.714 28.4245ZM61.8839 48.8324C61.4815 48.9656 61.0685 49.0944 60.6477 49.2192C59.7163 46.2704 58.4591 43.1347 56.9207 39.8951C58.3888 36.7326 59.5973 33.637 60.5027 30.7073C61.2556 30.9252 61.9864 31.1549 62.6905 31.3974C69.5013 33.7421 73.6558 37.2086 73.6558 39.8797C73.6558 42.725 69.1691 46.4184 61.8839 48.8324ZM58.8611 54.8223C59.5976 58.5427 59.7028 61.9065 59.2149 64.536C58.7766 66.8989 57.895 68.4742 56.805 69.1052C54.4856 70.4477 49.5254 68.7026 44.176 64.0993C43.5627 63.5716 42.945 63.0081 42.3254 62.4118C44.3992 60.1436 46.4719 57.5069 48.4948 54.5785C52.0528 54.2627 55.4143 53.7466 58.4627 53.0419C58.6128 53.6475 58.7462 54.2415 58.8611 54.8223ZM28.2919 68.8732C26.0257 69.6735 24.2209 69.6964 23.1298 69.0673C20.8083 67.7283 19.8431 62.5595 21.1596 55.6261C21.3104 54.8321 21.4899 54.0164 21.6967 53.1827C24.7117 53.8494 28.0486 54.3292 31.6152 54.6183C33.6517 57.4838 35.7842 60.1177 37.9332 62.424C37.4637 62.8772 36.996 63.3088 36.5309 63.7154C33.6754 66.2115 30.8138 67.9824 28.2919 68.8732ZM17.6752 48.8149C14.0864 47.5883 11.1226 45.9941 9.09112 44.2545C7.26567 42.6912 6.34403 41.1391 6.34403 39.8797C6.34403 37.1997 10.3396 33.7814 17.0035 31.458C17.8121 31.176 18.6586 30.9103 19.537 30.6608C20.4579 33.6566 21.6661 36.7889 23.1241 39.9563C21.6472 43.1706 20.4219 46.3528 19.4919 49.3838C18.8657 49.2038 18.259 49.0143 17.6752 48.8149ZM21.234 24.5904C19.8509 17.5216 20.7695 12.1891 23.0811 10.8509C25.5434 9.42546 30.9882 11.4579 36.7268 16.5534C37.0936 16.8791 37.4619 17.22 37.8312 17.5727C35.6927 19.8688 33.5797 22.4829 31.5613 25.3315C28.0998 25.6524 24.7864 26.1678 21.74 26.8579C21.5484 26.0875 21.3788 25.3305 21.234 24.5904ZM52.9817 32.4298C52.2535 31.1718 51.5058 29.9436 50.7436 28.749C53.0919 29.0459 55.3418 29.4399 57.4547 29.9222C56.8204 31.9551 56.0298 34.0807 55.0991 36.2598C54.4315 34.9923 53.7253 33.7143 52.9817 32.4298ZM40.0351 19.8197C41.4854 21.3909 42.9377 23.145 44.3662 25.0483C42.9267 24.9803 41.4694 24.9449 40 24.9449C38.5445 24.9449 37.0979 24.9795 35.6673 25.0463C37.0973 23.1608 38.5622 21.4089 40.0351 19.8197ZM27.0055 32.4515C26.2781 33.713 25.585 34.984 24.9279 36.2574C24.0123 34.086 23.229 31.9507 22.5892 29.8889C24.6891 29.419 26.9284 29.0347 29.2617 28.7435C28.4888 29.9492 27.735 31.1864 27.0055 32.4513V32.4515ZM29.329 51.2403C26.9182 50.9713 24.6452 50.6069 22.5458 50.1499C23.1959 48.0513 23.9964 45.8704 24.9314 43.6522C25.5903 44.9247 26.2861 46.1962 27.018 47.4605H27.0181C27.7637 48.7484 28.5361 50.01 29.329 51.2403ZM40.1221 60.1615C38.6319 58.5536 37.1455 56.7751 35.6938 54.862C37.103 54.9173 38.5398 54.9455 40 54.9455C41.5002 54.9455 42.9832 54.9118 44.4428 54.8468C43.0096 56.7943 41.5625 58.5756 40.1221 60.1615ZM55.1291 43.5392C56.1128 45.7813 56.9421 47.9508 57.6005 50.0137C55.4666 50.5005 53.1625 50.8926 50.735 51.1839C51.499 49.9732 52.2532 48.7239 52.9943 47.4388C53.7441 46.1387 54.456 44.8367 55.1291 43.5392ZM50.2708 45.8681C49.1203 47.8629 47.9392 49.7672 46.74 51.5648C44.556 51.7209 42.2997 51.8014 40 51.8014C37.7096 51.8014 35.4817 51.7302 33.3363 51.591C32.0889 49.7699 30.882 47.8599 29.7389 45.8852H29.7391C28.599 43.9159 27.5496 41.93 26.5988 39.9552C27.5494 37.9758 28.596 35.9877 29.7296 34.0219L29.7293 34.0223C30.8659 32.0513 32.0622 30.1506 33.2981 28.3409C35.4869 28.1754 37.7315 28.0891 39.9999 28.0891H40C42.2786 28.0891 44.526 28.1761 46.7142 28.343C47.9313 30.1395 49.1194 32.034 50.2605 34.0053C51.4145 35.9987 52.4746 37.9736 53.4333 39.9105C52.4775 41.8807 51.4197 43.8756 50.2708 45.8681ZM56.7568 10.7574C59.2215 12.1787 60.1799 17.9108 58.6314 25.4273C58.5326 25.9069 58.4214 26.3955 58.3006 26.8905C55.2471 26.186 51.9313 25.6617 48.4598 25.336C46.4374 22.4561 44.3417 19.8379 42.2381 17.5712C42.8037 17.0271 43.3685 16.5084 43.9309 16.0188C49.3645 11.2901 54.443 9.4231 56.7568 10.7574ZM40 33.3075C43.6297 33.3075 46.5722 36.2499 46.5722 39.8797C46.5722 43.5094 43.6297 46.452 40 46.452C36.3703 46.452 33.4278 43.5094 33.4278 39.8797C33.4278 36.2499 36.3703 33.3075 40 33.3075Z" fill="#00D8FF"/>
</svg>
