<svg width="56" height="16" viewBox="0 0 56 16" fill="none" xmlns="http://www.w3.org/2000/svg">
<path d="M14.5586 0H17.1346V15.9999H14.5586V0Z" fill="#141414"/>
<path d="M26.0989 10.93C26.0989 13.4089 24.0829 13.6343 23.4109 13.6343C21.8429 13.6343 21.6189 12.1695 21.6189 11.3807V5.18359H19.043V11.2681C19.043 12.7328 19.491 14.085 20.3869 14.8737C21.1709 15.6624 22.1789 16.0004 23.4109 16.0004C24.3069 16.0004 25.4269 15.7751 26.0989 15.099V16.0004H28.6748V5.18359H26.0989V10.93Z" fill="#141414"/>
<path d="M33.7143 1.23926H31.1383V5.1829H29.2344V7.66176H31.1383V15.9997H33.7143V7.66176H35.6183V5.1829H33.7143V1.23926Z" fill="#141414"/>
<path d="M43.6784 12.7326C43.1184 13.1833 42.3344 13.5213 41.5504 13.5213C39.7584 13.5213 38.5265 12.1692 38.5265 10.3664C38.5265 8.56362 39.7584 7.32419 41.5504 7.32419C42.3344 7.32419 43.1184 7.54954 43.6784 8.11292L44.0144 8.45094L45.8064 6.76081L45.3584 6.42279C44.3504 5.52138 43.0064 4.95801 41.5504 4.95801C38.4145 4.95801 36.0625 7.32419 36.0625 10.4791C36.0625 13.634 38.4145 16.0002 41.5504 16.0002C43.0064 16.0002 44.3504 15.4368 45.3584 14.5354L45.8064 14.1974L44.0144 12.3946L43.6784 12.7326Z" fill="#141414"/>
<path d="M54.8789 6.08448C54.095 5.29575 53.311 4.95772 52.079 4.95772C51.183 4.95772 50.287 5.18307 49.615 5.85912V0H47.0391V15.9999H49.615V10.0281C49.615 7.54926 51.295 7.3239 51.967 7.3239C53.535 7.3239 53.423 8.78868 53.423 9.57741V15.8872H55.9989V9.69009C55.9989 8.22531 55.6629 6.8732 54.8789 6.08448Z" fill="#141414"/>
<path d="M41.4404 12.2814C42.4301 12.2814 43.2324 11.4743 43.2324 10.4786C43.2324 9.48293 42.4301 8.67578 41.4404 8.67578C40.4507 8.67578 39.6484 9.48293 39.6484 10.4786C39.6484 11.4743 40.4507 12.2814 41.4404 12.2814Z" fill="#EF4335"/>
<path d="M10.9758 12.0562C10.0798 12.9576 8.73587 13.521 7.27989 13.521C4.47993 13.521 2.46396 11.2675 2.46396 8.22521C2.46396 5.18298 4.47993 2.92947 7.39189 2.92947C8.73587 2.92947 10.0798 3.49284 11.0878 4.50692L11.4238 4.84495L13.1038 3.15482L12.7678 2.81679C11.3118 1.35201 9.40786 0.563283 7.39189 0.563283C3.13595 0.450608 0 3.83087 0 8.22521C0 12.6196 3.13595 15.9998 7.27989 15.9998C9.29586 15.9998 11.3118 15.2111 12.6558 13.7463L12.9918 13.4083L11.3118 11.7182L10.9758 12.0562Z" fill="#141414"/>
</svg>
