<svg width="1392" height="231" viewBox="0 0 1392 231" fill="none" xmlns="http://www.w3.org/2000/svg">
<g clip-path="url(#clip0_18_51742)" filter="url(#filter0_d_18_51742)">
<rect width="2000" height="40" transform="translate(-302 178.312) rotate(-5)" fill="#716D0C"/>
<path d="M6.45683 159.356L12.5175 158.825L2.90093 183.758L-3.15973 184.289L6.45683 159.356Z" fill="#0A0A0A"/>
<path d="M24.6387 157.765L30.6994 157.234L21.0828 182.167L15.0222 182.698L24.6387 157.765Z" fill="#0A0A0A"/>
<path d="M42.8208 156.174L48.8815 155.644L39.2649 180.577L33.2043 181.107L42.8208 156.174Z" fill="#0A0A0A"/>
<path d="M61.0027 154.584L67.0634 154.053L57.4468 178.986L51.3862 179.517L61.0027 154.584Z" fill="#0A0A0A"/>
<path d="M83.4514 171.963C82.1603 172.076 81.036 171.891 80.0783 171.409C79.1201 170.921 78.3547 170.193 77.7822 169.225C77.2156 168.256 76.874 167.106 76.7574 165.773C76.6408 164.44 76.7774 163.248 77.1672 162.196C77.563 161.143 78.1906 160.296 79.0499 159.655C79.9088 159.008 80.9837 158.627 82.2748 158.514C83.7631 158.384 85.0274 158.653 86.0675 159.321C87.1137 159.988 87.8837 160.942 88.3776 162.181L86.5216 162.859C86.1916 161.978 85.6813 161.309 84.9908 160.852C84.3063 160.394 83.453 160.209 82.4309 160.299C81.5164 160.379 80.7724 160.651 80.1988 161.117C79.6252 161.583 79.2154 162.2 78.9694 162.968C78.7294 163.736 78.6526 164.613 78.7389 165.6C78.8192 166.586 79.0442 167.437 79.4138 168.151C79.7895 168.865 80.3002 169.402 80.946 169.761C81.5977 170.12 82.3808 170.259 83.2953 170.179C84.3174 170.089 85.1258 169.76 85.7203 169.19C86.3204 168.613 86.7067 167.866 86.8793 166.947L88.8247 167.292C88.5536 168.599 87.9608 169.671 87.0465 170.51C86.1381 171.349 84.9397 171.833 83.4514 171.963ZM96.5498 170.817C95.2587 170.93 94.1344 170.745 93.1767 170.263C92.2185 169.775 91.4531 169.047 90.8806 168.079C90.314 167.11 89.9725 165.96 89.8558 164.627C89.7392 163.294 89.8758 162.102 90.2656 161.05C90.6614 159.997 91.289 159.15 92.1483 158.509C93.0072 157.862 94.0821 157.481 95.3732 157.368C96.6583 157.256 97.78 157.444 98.7382 157.932C99.7018 158.414 100.467 159.139 101.033 160.108C101.6 161.076 101.942 162.226 102.058 163.559C102.175 164.892 102.038 166.085 101.648 167.137C101.259 168.189 100.631 169.039 99.7665 169.686C98.9071 170.328 97.8349 170.705 96.5498 170.817ZM96.3937 169.033C97.3093 168.965 98.0509 168.698 98.6185 168.233C99.1915 167.761 99.5981 167.141 99.8381 166.374C100.078 165.6 100.154 164.72 100.068 163.734C99.9815 162.747 99.7538 161.9 99.3847 161.191C99.015 160.477 98.5073 159.94 97.8615 159.581C97.2217 159.221 96.4443 159.079 95.5293 159.153C94.6138 159.221 93.8692 159.488 93.2956 159.953C92.728 160.419 92.3244 161.038 92.085 161.812C91.8455 162.586 91.7659 163.466 91.8462 164.453C91.9265 165.44 92.1515 166.29 92.5212 167.005C92.8904 167.713 93.3978 168.247 94.0436 168.606C94.6953 168.965 95.4787 169.107 96.3937 169.033ZM104.411 169.858L103.282 156.948L104.976 156.799L110.506 166.1L114.31 155.983L116.022 155.833L117.151 168.735L115.376 168.89L114.603 160.059L111.207 169.264L110.356 169.338L105.404 160.863L106.178 169.704L104.411 169.858ZM119.843 168.508L118.713 155.597L120.587 155.434L121.717 168.344L119.843 168.508ZM124.409 168.109L123.28 155.198L125.18 155.032L132.376 164.069L131.537 154.476L133.438 154.309L134.567 167.22L132.667 167.386L125.47 158.34L126.31 167.942L124.409 168.109ZM142.374 166.808C141.508 166.884 140.696 166.804 139.941 166.569C139.185 166.328 138.513 165.941 137.924 165.408C137.336 164.876 136.856 164.207 136.484 163.402C136.112 162.598 135.88 161.666 135.788 160.608C135.666 159.216 135.815 157.998 136.236 156.955C136.656 155.907 137.294 155.074 138.15 154.457C139.005 153.834 140.021 153.471 141.198 153.368C142.717 153.235 143.958 153.482 144.922 154.109C145.892 154.734 146.596 155.655 147.034 156.869L145.163 157.376C144.832 156.628 144.354 156.049 143.728 155.64C143.102 155.231 142.346 155.063 141.461 155.134C140.546 155.208 139.802 155.478 139.228 155.944C138.661 156.409 138.257 157.029 138.018 157.802C137.778 158.57 137.698 159.448 137.778 160.434C137.859 161.421 138.084 162.272 138.453 162.986C138.822 163.695 139.33 164.228 139.976 164.588C140.627 164.946 141.411 165.088 142.326 165.014C143.062 164.962 143.681 164.772 144.182 164.445C144.689 164.112 145.074 163.657 145.337 163.08C145.599 162.503 145.74 161.81 145.76 161.001L143.25 161.22L143.118 159.714L147.619 159.32C147.64 159.427 147.661 159.57 147.683 159.748C147.704 159.921 147.717 160.032 147.721 160.079C147.826 161.275 147.689 162.362 147.311 163.341C146.933 164.319 146.328 165.116 145.496 165.731C144.664 166.34 143.623 166.699 142.374 166.808ZM158.322 165.413C157.395 165.494 156.544 165.409 155.77 165.157C155 164.899 154.348 164.496 153.812 163.946C153.281 163.39 152.908 162.709 152.693 161.903L154.622 161.436C154.888 162.208 155.354 162.787 156.021 163.175C156.687 163.556 157.438 163.71 158.275 163.637C158.795 163.592 159.266 163.469 159.688 163.27C160.11 163.064 160.439 162.797 160.675 162.469C160.917 162.135 161.019 161.753 160.981 161.322C160.961 161.089 160.901 160.887 160.802 160.715C160.708 160.542 160.584 160.396 160.429 160.278C160.28 160.152 160.099 160.05 159.887 159.973C159.681 159.888 159.456 159.821 159.21 159.77L155.816 159.082C155.485 159.015 155.146 158.921 154.798 158.801C154.45 158.675 154.124 158.501 153.822 158.281C153.525 158.054 153.274 157.766 153.069 157.416C152.863 157.061 152.737 156.62 152.691 156.094C152.621 155.299 152.766 154.609 153.124 154.023C153.488 153.431 154.007 152.964 154.682 152.622C155.356 152.274 156.127 152.062 156.993 151.986C157.867 151.922 158.661 152.009 159.374 152.248C160.094 152.486 160.705 152.866 161.209 153.388C161.717 153.904 162.093 154.552 162.336 155.331L160.358 155.848C160.226 155.372 159.998 154.973 159.675 154.652C159.351 154.325 158.969 154.087 158.528 153.939C158.087 153.785 157.618 153.727 157.122 153.764C156.643 153.794 156.21 153.904 155.823 154.094C155.442 154.284 155.144 154.53 154.93 154.832C154.721 155.133 154.633 155.466 154.665 155.831C154.696 156.19 154.826 156.47 155.054 156.673C155.283 156.876 155.555 157.03 155.872 157.135C156.194 157.233 156.511 157.311 156.823 157.368L159.266 157.832C159.573 157.889 159.92 157.973 160.309 158.084C160.704 158.188 161.089 158.35 161.463 158.57C161.844 158.79 162.169 159.098 162.439 159.496C162.708 159.888 162.87 160.398 162.925 161.026C162.982 161.677 162.9 162.263 162.681 162.782C162.461 163.295 162.135 163.739 161.704 164.114C161.279 164.482 160.774 164.777 160.191 164.996C159.608 165.216 158.985 165.355 158.322 165.413ZM170.57 164.341C169.279 164.454 168.154 164.269 167.197 163.787C166.238 163.299 165.473 162.571 164.901 161.603C164.334 160.635 163.992 159.484 163.876 158.151C163.759 156.818 163.896 155.626 164.286 154.574C164.681 153.521 165.309 152.674 166.168 152.033C167.027 151.386 168.102 151.005 169.393 150.893C170.678 150.78 171.8 150.968 172.758 151.456C173.722 151.938 174.487 152.663 175.053 153.632C175.62 154.6 175.962 155.751 176.078 157.083C176.195 158.416 176.058 159.609 175.668 160.661C175.279 161.713 174.651 162.563 173.786 163.211C172.927 163.852 171.855 164.229 170.57 164.341ZM170.414 162.557C171.329 162.489 172.071 162.222 172.638 161.757C173.212 161.285 173.618 160.666 173.858 159.898C174.098 159.124 174.174 158.244 174.088 157.258C174.002 156.271 173.774 155.424 173.405 154.715C173.035 154.001 172.527 153.464 171.882 153.105C171.242 152.745 170.464 152.603 169.549 152.677C168.634 152.745 167.889 153.012 167.316 153.477C166.748 153.943 166.344 154.562 166.105 155.336C165.865 156.11 165.786 156.99 165.866 157.977C165.947 158.964 166.172 159.814 166.541 160.529C166.91 161.237 167.418 161.771 168.064 162.13C168.715 162.489 169.499 162.631 170.414 162.557ZM183.843 163.18C182.552 163.293 181.428 163.108 180.47 162.626C179.512 162.137 178.747 161.409 178.174 160.442C177.608 159.473 177.266 158.323 177.149 156.99C177.033 155.657 177.169 154.464 177.559 153.412C177.955 152.36 178.582 151.513 179.442 150.872C180.301 150.224 181.376 149.844 182.667 149.731C183.952 149.619 185.073 149.807 186.032 150.295C186.995 150.777 187.76 151.502 188.327 152.47C188.894 153.439 189.235 154.589 189.352 155.922C189.468 157.255 189.332 158.448 188.942 159.5C188.552 160.551 187.925 161.401 187.06 162.049C186.201 162.691 185.128 163.067 183.843 163.18ZM183.687 161.396C184.603 161.328 185.344 161.061 185.912 160.596C186.485 160.124 186.892 159.504 187.132 158.736C187.371 157.963 187.448 157.083 187.361 156.096C187.275 155.11 187.047 154.263 186.678 153.554C186.308 152.84 185.801 152.303 185.155 151.944C184.515 151.584 183.738 151.441 182.823 151.515C181.907 151.584 181.163 151.85 180.589 152.316C180.021 152.781 179.618 153.401 179.378 154.175C179.139 154.949 179.059 155.829 179.14 156.816C179.22 157.802 179.445 158.653 179.815 159.367C180.184 160.076 180.691 160.61 181.337 160.969C181.989 161.327 182.772 161.47 183.687 161.396ZM191.705 162.221L190.575 149.31L192.476 149.144L199.672 158.181L198.833 148.588L200.734 148.422L201.863 161.332L199.962 161.499L192.766 152.452L193.606 162.055L191.705 162.221Z" fill="#0A0A0A"/>
<path d="M221.066 140.58L227.043 140.057L217.588 164.976L211.611 165.499L221.066 140.58Z" fill="#0A0A0A"/>
<path d="M238.998 139.011L244.975 138.488L235.52 163.407L229.542 163.93L238.998 139.011Z" fill="#0A0A0A"/>
<path d="M256.929 137.442L262.906 136.919L253.451 161.838L247.474 162.361L256.929 137.442Z" fill="#0A0A0A"/>
<path d="M274.861 135.874L280.838 135.351L271.383 160.27L265.405 160.792L274.861 135.874Z" fill="#0A0A0A"/>
<path d="M297.226 153.26C295.935 153.373 294.811 153.189 293.853 152.706C292.895 152.218 292.129 151.49 291.557 150.522C290.99 149.554 290.649 148.403 290.532 147.07C290.415 145.737 290.552 144.545 290.942 143.493C291.338 142.44 291.965 141.594 292.825 140.952C293.683 140.305 294.758 139.925 296.049 139.812C297.538 139.682 298.802 139.95 299.842 140.618C300.888 141.286 301.658 142.239 302.152 143.479L300.296 144.156C299.966 143.276 299.456 142.607 298.766 142.149C298.081 141.691 297.228 141.507 296.206 141.596C295.291 141.676 294.547 141.949 293.973 142.415C293.4 142.88 292.99 143.497 292.744 144.266C292.504 145.034 292.427 145.911 292.514 146.897C292.594 147.884 292.819 148.734 293.189 149.449C293.564 150.163 294.075 150.699 294.721 151.058C295.372 151.417 296.155 151.556 297.07 151.476C298.092 151.387 298.9 151.057 299.495 150.487C300.095 149.911 300.481 149.163 300.654 148.245L302.599 148.589C302.328 149.896 301.735 150.969 300.821 151.808C299.913 152.646 298.714 153.13 297.226 153.26ZM310.324 152.114C309.033 152.227 307.909 152.043 306.951 151.56C305.993 151.072 305.228 150.344 304.655 149.376C304.089 148.408 303.747 147.257 303.63 145.924C303.514 144.591 303.65 143.399 304.04 142.347C304.436 141.294 305.064 140.448 305.923 139.806C306.782 139.159 307.857 138.779 309.148 138.666C310.433 138.553 311.555 138.741 312.513 139.23C313.476 139.712 314.242 140.437 314.808 141.405C315.375 142.373 315.716 143.524 315.833 144.857C315.949 146.19 315.813 147.382 315.423 148.434C315.033 149.486 314.406 150.336 313.541 150.984C312.682 151.625 311.61 152.002 310.324 152.114ZM310.168 150.33C311.084 150.262 311.826 149.996 312.393 149.53C312.966 149.059 313.373 148.439 313.613 147.671C313.852 146.897 313.929 146.017 313.842 145.031C313.756 144.045 313.528 143.197 313.159 142.489C312.79 141.774 312.282 141.237 311.636 140.878C310.996 140.519 310.219 140.376 309.304 140.45C308.388 140.518 307.644 140.785 307.07 141.251C306.503 141.716 306.099 142.335 305.86 143.109C305.62 143.883 305.541 144.763 305.621 145.75C305.701 146.737 305.926 147.588 306.296 148.302C306.665 149.011 307.172 149.544 307.818 149.903C308.47 150.262 309.253 150.404 310.168 150.33ZM318.186 151.156L317.057 138.245L318.751 138.097L324.281 147.397L328.084 137.28L329.797 137.13L330.926 150.032L329.15 150.187L328.378 141.356L324.982 150.561L324.13 150.636L319.179 142.161L319.952 151.001L318.186 151.156ZM333.618 149.806L332.488 136.895L334.362 136.731L335.491 149.642L333.618 149.806ZM338.184 149.406L337.054 136.495L338.955 136.329L346.151 145.366L345.312 135.773L347.213 135.607L348.342 148.517L346.441 148.684L339.245 139.637L340.085 149.24L338.184 149.406ZM356.149 148.105C355.282 148.181 354.471 148.102 353.716 147.866C352.96 147.625 352.288 147.239 351.699 146.706C351.11 146.173 350.63 145.504 350.259 144.7C349.887 143.895 349.655 142.964 349.562 141.906C349.441 140.513 349.59 139.295 350.011 138.253C350.431 137.204 351.069 136.371 351.924 135.755C352.779 135.132 353.796 134.769 354.973 134.666C356.491 134.533 357.732 134.78 358.697 135.406C359.667 136.032 360.371 136.952 360.808 138.166L358.937 138.673C358.607 137.925 358.129 137.347 357.503 136.938C356.877 136.529 356.121 136.36 355.236 136.431C354.321 136.506 353.577 136.775 353.003 137.241C352.435 137.706 352.032 138.326 351.792 139.1C351.552 139.868 351.473 140.745 351.553 141.732C351.633 142.718 351.858 143.569 352.228 144.284C352.597 144.992 353.104 145.526 353.75 145.885C354.402 146.244 355.185 146.386 356.1 146.312C356.837 146.259 357.455 146.07 357.957 145.743C358.464 145.409 358.848 144.954 359.111 144.377C359.374 143.8 359.515 143.107 359.535 142.298L357.024 142.518L356.892 141.012L361.393 140.618C361.415 140.724 361.436 140.867 361.458 141.046C361.479 141.219 361.492 141.329 361.496 141.377C361.6 142.572 361.464 143.659 361.085 144.638C360.707 145.617 360.102 146.413 359.271 147.028C358.439 147.637 357.398 147.996 356.149 148.105ZM372.096 146.71C371.17 146.791 370.319 146.706 369.544 146.455C368.775 146.197 368.122 145.793 367.586 145.244C367.056 144.688 366.683 144.007 366.468 143.2L368.397 142.733C368.663 143.505 369.129 144.085 369.795 144.472C370.461 144.854 371.213 145.008 372.049 144.934C372.569 144.889 373.04 144.766 373.463 144.567C373.884 144.361 374.213 144.095 374.45 143.767C374.691 143.432 374.794 143.05 374.756 142.62C374.735 142.387 374.676 142.184 374.576 142.012C374.483 141.84 374.359 141.694 374.204 141.575C374.054 141.449 373.874 141.348 373.662 141.27C373.456 141.186 373.23 141.118 372.985 141.067L369.591 140.379C369.26 140.312 368.92 140.218 368.573 140.098C368.224 139.972 367.899 139.799 367.597 139.578C367.3 139.351 367.049 139.063 366.843 138.714C366.638 138.358 366.512 137.917 366.466 137.391C366.396 136.596 366.54 135.906 366.899 135.321C367.263 134.729 367.782 134.262 368.457 133.92C369.131 133.572 369.901 133.36 370.768 133.284C371.642 133.219 372.435 133.307 373.149 133.545C373.868 133.783 374.48 134.164 374.983 134.686C375.492 135.201 375.868 135.849 376.111 136.629L374.132 137.145C374 136.669 373.773 136.27 373.45 135.949C373.126 135.622 372.744 135.385 372.303 135.236C371.862 135.082 371.393 135.024 370.896 135.061C370.417 135.091 369.984 135.201 369.597 135.392C369.216 135.582 368.919 135.828 368.704 136.129C368.496 136.431 368.407 136.764 368.439 137.128C368.471 137.487 368.601 137.768 368.829 137.971C369.058 138.173 369.33 138.327 369.646 138.432C369.968 138.53 370.285 138.608 370.597 138.665L373.041 139.129C373.347 139.186 373.695 139.27 374.084 139.381C374.479 139.485 374.863 139.647 375.238 139.867C375.618 140.087 375.944 140.396 376.213 140.794C376.482 141.186 376.645 141.696 376.699 142.323C376.756 142.975 376.675 143.56 376.456 144.079C376.235 144.592 375.91 145.036 375.479 145.411C375.053 145.78 374.549 146.074 373.966 146.294C373.383 146.513 372.76 146.652 372.096 146.71ZM384.344 145.639C383.053 145.751 381.929 145.567 380.971 145.084C380.013 144.596 379.248 143.868 378.675 142.9C378.109 141.932 377.767 140.781 377.65 139.448C377.534 138.115 377.67 136.923 378.06 135.871C378.456 134.819 379.084 133.972 379.943 133.33C380.802 132.683 381.877 132.303 383.168 132.19C384.453 132.077 385.575 132.265 386.533 132.754C387.496 133.236 388.262 133.961 388.828 134.929C389.395 135.897 389.736 137.048 389.853 138.381C389.969 139.714 389.833 140.906 389.443 141.958C389.053 143.01 388.426 143.86 387.561 144.508C386.702 145.149 385.63 145.526 384.344 145.639ZM384.188 143.854C385.104 143.786 385.845 143.52 386.413 143.054C386.986 142.583 387.393 141.963 387.633 141.195C387.872 140.421 387.949 139.541 387.862 138.555C387.776 137.569 387.548 136.721 387.179 136.013C386.81 135.298 386.302 134.762 385.656 134.402C385.016 134.043 384.239 133.9 383.324 133.974C382.408 134.042 381.664 134.309 381.09 134.775C380.523 135.24 380.119 135.86 379.88 136.633C379.64 137.407 379.561 138.288 379.641 139.274C379.721 140.261 379.946 141.112 380.316 141.826C380.685 142.535 381.192 143.068 381.838 143.428C382.49 143.786 383.273 143.928 384.188 143.854ZM397.618 144.477C396.327 144.59 395.203 144.406 394.245 143.923C393.287 143.435 392.521 142.707 391.949 141.739C391.382 140.771 391.041 139.62 390.924 138.287C390.807 136.954 390.944 135.762 391.334 134.71C391.73 133.657 392.357 132.81 393.216 132.169C394.075 131.522 395.15 131.142 396.441 131.029C397.726 130.916 398.848 131.104 399.806 131.592C400.77 132.074 401.535 132.799 402.102 133.768C402.668 134.736 403.01 135.887 403.126 137.22C403.243 138.552 403.106 139.745 402.717 140.797C402.327 141.849 401.7 142.699 400.835 143.347C399.975 143.988 398.903 144.365 397.618 144.477ZM397.462 142.693C398.377 142.625 399.119 142.358 399.687 141.893C400.26 141.421 400.666 140.802 400.906 140.034C401.146 139.26 401.222 138.38 401.136 137.394C401.05 136.407 400.822 135.56 400.453 134.852C400.083 134.137 399.575 133.6 398.93 133.241C398.29 132.882 397.512 132.739 396.597 132.813C395.682 132.881 394.937 133.148 394.364 133.614C393.796 134.079 393.393 134.698 393.153 135.472C392.914 136.246 392.834 137.126 392.914 138.113C392.995 139.1 393.22 139.95 393.589 140.665C393.959 141.373 394.466 141.907 395.112 142.266C395.763 142.625 396.547 142.767 397.462 142.693ZM405.48 143.518L404.35 130.608L406.251 130.441L413.447 139.479L412.607 129.885L414.508 129.719L415.638 142.63L413.737 142.796L406.54 133.75L407.38 143.352L405.48 143.518Z" fill="#0A0A0A"/>
<path d="M434.841 121.877L440.818 121.354L431.363 146.273L425.386 146.796L434.841 121.877Z" fill="#0A0A0A"/>
<path d="M452.772 120.308L458.75 119.785L449.294 144.704L443.317 145.227L452.772 120.308Z" fill="#0A0A0A"/>
<path d="M470.704 118.739L476.681 118.216L467.226 143.135L461.249 143.658L470.704 118.739Z" fill="#0A0A0A"/>
<path d="M488.635 117.17L494.613 116.647L485.157 141.566L479.18 142.089L488.635 117.17Z" fill="#0A0A0A"/>
<path d="M511 134.557C509.709 134.67 508.585 134.486 507.627 134.003C506.669 133.515 505.904 132.787 505.331 131.819C504.765 130.851 504.423 129.7 504.307 128.367C504.19 127.034 504.326 125.842 504.716 124.79C505.112 123.737 505.74 122.89 506.599 122.249C507.458 121.602 508.533 121.222 509.824 121.109C511.312 120.978 512.576 121.247 513.617 121.915C514.663 122.583 515.433 123.536 515.927 124.776L514.071 125.453C513.741 124.572 513.23 123.903 512.54 123.446C511.855 122.988 511.002 122.803 509.98 122.893C509.065 122.973 508.321 123.246 507.748 123.711C507.174 124.177 506.764 124.794 506.518 125.563C506.279 126.331 506.202 127.208 506.288 128.194C506.368 129.181 506.593 130.031 506.963 130.746C507.339 131.46 507.849 131.996 508.495 132.355C509.147 132.714 509.93 132.853 510.844 132.773C511.866 132.684 512.675 132.354 513.269 131.784C513.869 131.207 514.256 130.46 514.428 129.541L516.374 129.886C516.103 131.193 515.51 132.266 514.596 133.104C513.687 133.943 512.489 134.427 511 134.557ZM524.099 133.411C522.808 133.524 521.683 133.34 520.726 132.857C519.768 132.369 519.002 131.641 518.43 130.673C517.863 129.705 517.522 128.554 517.405 127.221C517.288 125.888 517.425 124.696 517.815 123.644C518.21 122.591 518.838 121.744 519.697 121.103C520.556 120.456 521.631 120.076 522.922 119.963C524.207 119.85 525.329 120.038 526.287 120.527C527.251 121.008 528.016 121.733 528.583 122.702C529.149 123.67 529.491 124.821 529.607 126.154C529.724 127.487 529.587 128.679 529.198 129.731C528.808 130.783 528.18 131.633 527.316 132.281C526.456 132.922 525.384 133.299 524.099 133.411ZM523.943 131.627C524.858 131.559 525.6 131.292 526.168 130.827C526.741 130.355 527.147 129.736 527.387 128.968C527.627 128.194 527.703 127.314 527.617 126.328C527.531 125.342 527.303 124.494 526.934 123.786C526.564 123.071 526.056 122.534 525.411 122.175C524.771 121.816 523.993 121.673 523.078 121.747C522.163 121.815 521.418 122.082 520.845 122.548C520.277 123.013 519.874 123.632 519.634 124.406C519.395 125.18 519.315 126.06 519.395 127.047C519.476 128.034 519.701 128.884 520.07 129.599C520.439 130.307 520.947 130.841 521.593 131.2C522.244 131.559 523.028 131.701 523.943 131.627ZM531.96 132.452L530.831 119.542L532.525 119.394L538.055 128.694L541.859 118.577L543.571 118.427L544.7 131.329L542.925 131.484L542.152 122.653L538.756 131.858L537.905 131.932L532.953 123.458L533.727 132.298L531.96 132.452ZM547.392 131.102L546.263 118.192L548.136 118.028L549.266 130.938L547.392 131.102ZM551.958 130.703L550.829 117.792L552.729 117.626L559.926 126.663L559.086 117.07L560.987 116.903L562.116 129.814L560.216 129.98L553.019 120.934L553.859 130.537L551.958 130.703ZM569.923 129.402C569.057 129.478 568.246 129.398 567.49 129.163C566.734 128.922 566.062 128.535 565.473 128.003C564.885 127.47 564.405 126.801 564.033 125.997C563.661 125.192 563.429 124.261 563.337 123.203C563.215 121.81 563.364 120.592 563.785 119.55C564.205 118.501 564.843 117.668 565.699 117.051C566.554 116.429 567.57 116.066 568.747 115.963C570.266 115.83 571.507 116.076 572.471 116.703C573.441 117.329 574.145 118.249 574.583 119.463L572.712 119.97C572.381 119.222 571.903 118.644 571.277 118.235C570.651 117.826 569.895 117.657 569.01 117.728C568.095 117.802 567.351 118.072 566.777 118.538C566.21 119.003 565.806 119.623 565.567 120.397C565.327 121.164 565.247 122.042 565.327 123.029C565.408 124.015 565.633 124.866 566.002 125.58C566.371 126.289 566.879 126.823 567.525 127.182C568.176 127.54 568.96 127.683 569.875 127.609C570.611 127.556 571.23 127.367 571.731 127.04C572.238 126.706 572.623 126.251 572.886 125.674C573.148 125.097 573.289 124.404 573.309 123.595L570.799 123.815L570.667 122.308L575.168 121.915C575.189 122.021 575.211 122.164 575.232 122.343C575.253 122.515 575.266 122.626 575.27 122.674C575.375 123.869 575.238 124.956 574.86 125.935C574.482 126.913 573.877 127.71 573.045 128.325C572.213 128.934 571.172 129.293 569.923 129.402ZM585.871 128.007C584.944 128.088 584.094 128.003 583.319 127.751C582.549 127.494 581.897 127.09 581.361 126.54C580.83 125.985 580.457 125.303 580.242 124.497L582.171 124.03C582.437 124.802 582.904 125.382 583.57 125.769C584.236 126.15 584.987 126.305 585.824 126.231C586.344 126.186 586.815 126.063 587.237 125.864C587.659 125.658 587.988 125.392 588.224 125.064C588.466 124.729 588.568 124.347 588.53 123.917C588.51 123.684 588.45 123.481 588.351 123.309C588.257 123.136 588.133 122.991 587.978 122.872C587.829 122.746 587.648 122.645 587.436 122.567C587.23 122.482 587.005 122.415 586.759 122.364L583.365 121.676C583.034 121.609 582.695 121.515 582.347 121.395C581.999 121.269 581.673 121.096 581.371 120.875C581.074 120.648 580.823 120.36 580.618 120.01C580.412 119.655 580.286 119.214 580.24 118.688C580.171 117.893 580.315 117.203 580.673 116.618C581.037 116.026 581.556 115.559 582.231 115.217C582.905 114.868 583.676 114.656 584.542 114.581C585.416 114.516 586.21 114.603 586.923 114.842C587.643 115.08 588.254 115.461 588.758 115.983C589.267 116.498 589.642 117.146 589.885 117.926L587.907 118.442C587.775 117.966 587.547 117.567 587.224 117.246C586.9 116.919 586.518 116.681 586.077 116.533C585.636 116.379 585.167 116.321 584.671 116.358C584.192 116.388 583.759 116.498 583.372 116.689C582.991 116.879 582.693 117.125 582.479 117.426C582.27 117.728 582.182 118.061 582.214 118.425C582.245 118.784 582.375 119.065 582.604 119.267C582.832 119.47 583.105 119.624 583.421 119.729C583.743 119.827 584.06 119.905 584.372 119.962L586.816 120.426C587.122 120.483 587.469 120.567 587.858 120.678C588.253 120.782 588.638 120.944 589.012 121.164C589.393 121.384 589.718 121.693 589.988 122.091C590.257 122.483 590.419 122.993 590.474 123.62C590.531 124.272 590.45 124.857 590.23 125.376C590.01 125.889 589.684 126.333 589.253 126.708C588.828 127.077 588.324 127.371 587.74 127.59C587.157 127.81 586.534 127.949 585.871 128.007ZM598.119 126.935C596.828 127.048 595.703 126.864 594.746 126.381C593.788 125.893 593.022 125.165 592.45 124.197C591.883 123.229 591.542 122.078 591.425 120.745C591.308 119.412 591.445 118.22 591.835 117.168C592.23 116.115 592.858 115.269 593.717 114.627C594.576 113.98 595.651 113.6 596.942 113.487C598.227 113.374 599.349 113.562 600.307 114.051C601.271 114.532 602.036 115.258 602.603 116.226C603.169 117.194 603.511 118.345 603.627 119.678C603.744 121.011 603.607 122.203 603.218 123.255C602.828 124.307 602.2 125.157 601.336 125.805C600.476 126.446 599.404 126.823 598.119 126.935ZM597.963 125.151C598.878 125.083 599.62 124.817 600.188 124.351C600.761 123.88 601.167 123.26 601.407 122.492C601.647 121.718 601.723 120.838 601.637 119.852C601.551 118.866 601.323 118.018 600.954 117.31C600.584 116.595 600.076 116.058 599.431 115.699C598.791 115.34 598.013 115.197 597.098 115.271C596.183 115.339 595.438 115.606 594.865 116.072C594.297 116.537 593.894 117.156 593.654 117.93C593.415 118.704 593.335 119.584 593.415 120.571C593.496 121.558 593.721 122.409 594.09 123.123C594.459 123.832 594.967 124.365 595.613 124.724C596.264 125.083 597.048 125.225 597.963 125.151ZM611.392 125.774C610.101 125.887 608.977 125.702 608.019 125.22C607.061 124.732 606.296 124.004 605.723 123.036C605.157 122.068 604.815 120.917 604.698 119.584C604.582 118.251 604.718 117.059 605.108 116.007C605.504 114.954 606.132 114.107 606.991 113.466C607.85 112.819 608.925 112.438 610.216 112.326C611.501 112.213 612.623 112.401 613.581 112.889C614.544 113.371 615.31 114.096 615.876 115.065C616.443 116.033 616.784 117.184 616.901 118.516C617.017 119.849 616.881 121.042 616.491 122.094C616.101 123.146 615.474 123.996 614.609 124.643C613.75 125.285 612.677 125.662 611.392 125.774ZM611.236 123.99C612.152 123.922 612.893 123.655 613.461 123.19C614.034 122.718 614.441 122.098 614.681 121.331C614.92 120.557 614.997 119.677 614.91 118.691C614.824 117.704 614.596 116.857 614.227 116.148C613.858 115.434 613.35 114.897 612.704 114.538C612.064 114.178 611.287 114.036 610.372 114.11C609.456 114.178 608.712 114.445 608.138 114.91C607.571 115.376 607.167 115.995 606.928 116.769C606.688 117.543 606.609 118.423 606.689 119.41C606.769 120.397 606.994 121.247 607.364 121.962C607.733 122.67 608.24 123.204 608.886 123.563C609.538 123.922 610.321 124.064 611.236 123.99ZM619.254 124.815L618.124 111.905L620.025 111.738L627.221 120.776L626.382 111.182L628.283 111.016L629.412 123.927L627.511 124.093L620.315 115.047L621.155 124.649L619.254 124.815Z" fill="#0A0A0A"/>
<path d="M648.615 103.174L654.593 102.651L645.137 127.57L639.16 128.093L648.615 103.174Z" fill="#0A0A0A"/>
<path d="M666.547 101.605L672.524 101.083L663.069 126.001L657.091 126.524L666.547 101.605Z" fill="#0A0A0A"/>
<path d="M684.478 100.037L690.456 99.5137L681 124.433L675.023 124.956L684.478 100.037Z" fill="#0A0A0A"/>
<path d="M702.41 98.4678L708.387 97.9449L698.932 122.864L692.955 123.387L702.41 98.4678Z" fill="#0A0A0A"/>
<path d="M724.775 115.855C723.484 115.968 722.359 115.783 721.402 115.301C720.444 114.812 719.678 114.084 719.106 113.116C718.539 112.148 718.198 110.997 718.081 109.665C717.964 108.332 718.101 107.139 718.491 106.087C718.886 105.035 719.514 104.188 720.373 103.546C721.232 102.899 722.307 102.519 723.598 102.406C725.087 102.276 726.351 102.545 727.391 103.213C728.437 103.88 729.207 104.833 729.701 106.073L727.845 106.75C727.515 105.87 727.005 105.201 726.314 104.743C725.63 104.285 724.776 104.101 723.754 104.19C722.84 104.27 722.096 104.543 721.522 105.009C720.949 105.475 720.539 106.092 720.293 106.86C720.053 107.628 719.976 108.505 720.062 109.491C720.143 110.478 720.368 111.329 720.737 112.043C721.113 112.757 721.624 113.294 722.269 113.653C722.921 114.011 723.704 114.15 724.619 114.07C725.641 113.981 726.449 113.651 727.044 113.081C727.644 112.505 728.03 111.757 728.203 110.839L730.148 111.184C729.877 112.49 729.284 113.563 728.37 114.402C727.462 115.24 726.263 115.724 724.775 115.855ZM737.873 114.709C736.582 114.822 735.458 114.637 734.5 114.155C733.542 113.666 732.777 112.938 732.204 111.97C731.638 111.002 731.296 109.851 731.179 108.519C731.063 107.186 731.199 105.993 731.589 104.941C731.985 103.889 732.612 103.042 733.472 102.4C734.331 101.753 735.406 101.373 736.697 101.26C737.982 101.148 739.103 101.336 740.062 101.824C741.025 102.306 741.79 103.031 742.357 103.999C742.924 104.967 743.265 106.118 743.382 107.451C743.498 108.784 743.362 109.976 742.972 111.028C742.582 112.08 741.955 112.93 741.09 113.578C740.231 114.219 739.158 114.596 737.873 114.709ZM737.717 112.925C738.633 112.856 739.374 112.59 739.942 112.125C740.515 111.653 740.922 111.033 741.162 110.265C741.401 109.491 741.478 108.611 741.391 107.625C741.305 106.639 741.077 105.792 740.708 105.083C740.338 104.368 739.831 103.832 739.185 103.473C738.545 103.113 737.768 102.97 736.853 103.044C735.937 103.112 735.193 103.379 734.619 103.845C734.051 104.31 733.648 104.93 733.408 105.704C733.169 106.477 733.089 107.358 733.17 108.344C733.25 109.331 733.475 110.182 733.845 110.896C734.214 111.605 734.721 112.139 735.367 112.498C736.019 112.856 736.802 112.999 737.717 112.925ZM745.735 113.75L744.605 100.839L746.3 100.691L751.829 109.991L755.633 99.8744L757.346 99.7245L758.474 112.626L756.699 112.782L755.927 103.95L752.531 113.155L751.679 113.23L746.728 104.755L747.501 113.595L745.735 113.75ZM761.166 112.4L760.037 99.4891L761.911 99.3251L763.04 112.236L761.166 112.4ZM765.733 112L764.603 99.0896L766.504 98.9233L773.7 107.961L772.861 98.3672L774.761 98.2009L775.891 111.112L773.99 111.278L766.793 102.232L767.633 111.834L765.733 112ZM783.698 110.7C782.831 110.775 782.02 110.696 781.265 110.461C780.509 110.22 779.836 109.833 779.248 109.3C778.659 108.767 778.179 108.099 777.807 107.294C777.436 106.489 777.204 105.558 777.111 104.5C776.989 103.107 777.139 101.89 777.56 100.847C777.98 99.7984 778.618 98.9657 779.473 98.3488C780.328 97.7259 781.344 97.3629 782.522 97.2599C784.04 97.1271 785.281 97.3738 786.246 98.0002C787.216 98.626 787.92 99.5462 788.357 100.761L786.486 101.268C786.156 100.52 785.678 99.9411 785.052 99.5321C784.425 99.1231 783.67 98.9543 782.785 99.0257C781.87 99.0997 781.125 99.3696 780.552 99.8354C779.984 100.301 779.581 100.92 779.341 101.694C779.101 102.462 779.021 103.339 779.102 104.326C779.182 105.313 779.407 106.163 779.777 106.878C780.146 107.586 780.653 108.12 781.299 108.479C781.951 108.838 782.734 108.98 783.649 108.906C784.385 108.854 785.004 108.664 785.506 108.337C786.013 108.004 786.397 107.548 786.66 106.971C786.923 106.394 787.064 105.701 787.083 104.892L784.573 105.112L784.441 103.606L788.942 103.212C788.963 103.319 788.985 103.461 789.007 103.64C789.028 103.813 789.04 103.923 789.045 103.971C789.149 105.166 789.012 106.253 788.634 107.232C788.256 108.211 787.651 109.008 786.82 109.622C785.988 110.231 784.947 110.59 783.698 110.7ZM799.645 109.304C798.719 109.385 797.868 109.3 797.093 109.049C796.324 108.791 795.671 108.387 795.135 107.838C794.605 107.282 794.232 106.601 794.017 105.795L795.945 105.328C796.212 106.099 796.678 106.679 797.344 107.066C798.01 107.448 798.761 107.602 799.598 107.529C800.118 107.483 800.589 107.361 801.011 107.161C801.433 106.956 801.762 106.689 801.999 106.361C802.24 106.027 802.342 105.644 802.305 105.214C802.284 104.981 802.224 104.778 802.125 104.606C802.032 104.434 801.908 104.288 801.753 104.169C801.603 104.044 801.422 103.942 801.211 103.864C801.005 103.78 800.779 103.712 800.534 103.661L797.14 102.974C796.809 102.906 796.469 102.812 796.121 102.692C795.773 102.566 795.448 102.393 795.145 102.172C794.848 101.945 794.597 101.657 794.392 101.308C794.186 100.952 794.061 100.512 794.014 99.9856C793.945 99.1907 794.089 98.5005 794.448 97.915C794.811 97.323 795.331 96.856 796.005 96.5139C796.68 96.1658 797.45 95.9539 798.317 95.878C799.191 95.8136 799.984 95.9008 800.698 96.1395C801.417 96.3777 802.029 96.7579 802.532 97.28C803.041 97.7956 803.417 98.4433 803.66 99.2231L801.681 99.7395C801.549 99.2632 801.322 98.8645 800.998 98.5435C800.675 98.2164 800.292 97.9788 799.852 97.8307C799.411 97.6765 798.942 97.6182 798.445 97.6556C797.966 97.6855 797.533 97.7956 797.146 97.9861C796.765 98.176 796.468 98.4219 796.253 98.7237C796.044 99.0251 795.956 99.358 795.988 99.7226C796.019 100.081 796.149 100.362 796.378 100.565C796.607 100.768 796.879 100.922 797.195 101.026C797.517 101.125 797.834 101.202 798.146 101.259L800.59 101.723C800.896 101.781 801.244 101.865 801.633 101.975C802.027 102.079 802.412 102.241 802.787 102.462C803.167 102.681 803.492 102.99 803.762 103.388C804.031 103.78 804.193 104.29 804.248 104.917C804.305 105.569 804.224 106.154 804.004 106.673C803.784 107.187 803.459 107.631 803.028 108.006C802.602 108.374 802.098 108.668 801.515 108.888C800.932 109.107 800.309 109.246 799.645 109.304ZM811.893 108.233C810.602 108.346 809.478 108.161 808.52 107.679C807.562 107.19 806.797 106.462 806.224 105.494C805.658 104.526 805.316 103.376 805.199 102.043C805.083 100.71 805.219 99.5173 805.609 98.4653C806.005 97.4128 806.632 96.5659 807.492 95.9246C808.351 95.2772 809.426 94.8971 810.717 94.7841C812.002 94.6717 813.123 94.8597 814.082 95.348C815.045 95.8299 815.81 96.5549 816.377 97.5232C816.944 98.4916 817.285 99.6422 817.402 100.975C817.518 102.308 817.382 103.5 816.992 104.552C816.602 105.604 815.975 106.454 815.11 107.102C814.251 107.743 813.178 108.12 811.893 108.233ZM811.737 106.449C812.653 106.381 813.394 106.114 813.962 105.649C814.535 105.177 814.942 104.557 815.182 103.789C815.421 103.015 815.498 102.135 815.411 101.149C815.325 100.163 815.097 99.3156 814.728 98.6071C814.358 97.8926 813.851 97.3558 813.205 96.9967C812.565 96.6371 811.788 96.4943 810.873 96.5683C809.957 96.6364 809.213 96.9033 808.639 97.3691C808.071 97.8343 807.668 98.4538 807.428 99.2276C807.189 100.001 807.109 100.882 807.19 101.869C807.27 102.855 807.495 103.706 807.865 104.42C808.234 105.129 808.741 105.663 809.387 106.022C810.039 106.38 810.822 106.523 811.737 106.449ZM825.167 107.071C823.876 107.184 822.751 107 821.794 106.517C820.835 106.029 820.07 105.301 819.498 104.333C818.931 103.365 818.589 102.214 818.473 100.881C818.356 99.5484 818.493 98.356 818.883 97.304C819.278 96.2515 819.906 95.4046 820.765 94.7633C821.624 94.116 822.699 93.7358 823.99 93.6229C825.275 93.5104 826.397 93.6984 827.355 94.1867C828.319 94.6686 829.084 95.3937 829.65 96.362C830.217 97.3303 830.559 98.4809 830.675 99.8138C830.792 101.147 830.655 102.339 830.265 103.391C829.876 104.443 829.248 105.293 828.384 105.941C827.524 106.582 826.452 106.959 825.167 107.071ZM825.011 105.287C825.926 105.219 826.668 104.953 827.235 104.487C827.809 104.016 828.215 103.396 828.455 102.628C828.695 101.854 828.771 100.974 828.685 99.9879C828.599 99.0017 828.371 98.1543 828.002 97.4458C827.632 96.7313 827.124 96.1945 826.479 95.8354C825.839 95.4758 825.061 95.333 824.146 95.407C823.231 95.4751 822.486 95.742 821.913 96.2078C821.345 96.673 820.941 97.2925 820.702 98.0664C820.462 98.8402 820.383 99.7205 820.463 100.707C820.544 101.694 820.769 102.545 821.138 103.259C821.507 103.968 822.015 104.501 822.661 104.861C823.312 105.219 824.096 105.361 825.011 105.287ZM833.028 106.113L831.899 93.202L833.8 93.0357L840.996 102.073L840.156 92.4795L842.057 92.3133L843.187 105.224L841.286 105.39L834.089 96.344L834.929 105.946L833.028 106.113Z" fill="#0A0A0A"/>
<path d="M862.39 84.4712L868.367 83.9483L858.912 108.867L852.935 109.39L862.39 84.4712Z" fill="#0A0A0A"/>
<path d="M880.321 82.9024L886.298 82.3794L876.843 107.298L870.866 107.821L880.321 82.9024Z" fill="#0A0A0A"/>
<path d="M898.253 81.3335L904.23 80.8106L894.775 105.729L888.798 106.252L898.253 81.3335Z" fill="#0A0A0A"/>
<path d="M916.184 79.7647L922.161 79.2417L912.706 104.161L906.729 104.684L916.184 79.7647Z" fill="#0A0A0A"/>
<path d="M938.55 97.152C937.258 97.265 936.134 97.0803 935.176 96.5979C934.218 96.1095 933.453 95.3815 932.88 94.4137C932.314 93.4454 931.972 92.2948 931.856 90.9619C931.739 89.629 931.876 88.4365 932.265 87.3845C932.661 86.332 933.289 85.4851 934.148 84.8438C935.007 84.1965 936.082 83.8163 937.373 83.7034C938.861 83.5732 940.126 83.842 941.166 84.5099C942.212 85.1773 942.982 86.1308 943.476 87.3704L941.62 88.0478C941.29 87.1672 940.779 86.4981 940.089 86.0406C939.404 85.5825 938.551 85.3981 937.529 85.4876C936.615 85.5676 935.87 85.8405 935.297 86.3062C934.723 86.772 934.314 87.3891 934.068 88.1574C933.828 88.9253 933.751 89.8023 933.837 90.7885C933.917 91.7753 934.142 92.6259 934.512 93.3404C934.888 94.0544 935.398 94.5909 936.044 94.95C936.696 95.3086 937.479 95.4478 938.393 95.3678C939.416 95.2784 940.224 94.9487 940.818 94.3787C941.419 93.8022 941.805 93.0547 941.977 92.1362L943.923 92.4809C943.652 93.7875 943.059 94.8603 942.145 95.6992C941.236 96.5375 940.038 97.0218 938.55 97.152ZM951.648 96.006C950.357 96.119 949.233 95.9343 948.275 95.4519C947.317 94.9636 946.551 94.2355 945.979 93.2677C945.412 92.2994 945.071 91.1488 944.954 89.8159C944.837 88.483 944.974 87.2906 945.364 86.2386C945.76 85.1861 946.387 84.3392 947.246 83.6978C948.105 83.0505 949.18 82.6704 950.471 82.5574C951.756 82.445 952.878 82.6329 953.836 83.1213C954.8 83.6031 955.565 84.3282 956.132 85.2965C956.698 86.2648 957.04 87.4154 957.156 88.7483C957.273 90.0812 957.136 91.2737 956.747 92.3257C956.357 93.3776 955.729 94.2276 954.865 94.8754C954.005 95.5167 952.933 95.8936 951.648 96.006ZM951.492 94.2219C952.407 94.1538 953.149 93.8872 953.717 93.4219C954.29 92.9502 954.696 92.3304 954.936 91.5626C955.176 90.7887 955.252 89.9087 955.166 88.9225C955.08 87.9362 954.852 87.0889 954.483 86.3803C954.113 85.6658 953.605 85.1291 952.96 84.77C952.32 84.4104 951.542 84.2676 950.627 84.3416C949.712 84.4097 948.967 84.6766 948.394 85.1423C947.826 85.6076 947.423 86.2271 947.183 87.0009C946.944 87.7747 946.864 88.655 946.944 89.6418C947.025 90.6285 947.25 91.4792 947.619 92.1937C947.989 92.9022 948.496 93.436 949.142 93.7951C949.793 94.1536 950.577 94.2959 951.492 94.2219ZM959.51 95.0472L958.38 82.1365L960.075 81.9883L965.604 91.2887L969.408 81.1717L971.12 81.0219L972.249 93.9236L970.474 94.0789L969.701 85.2477L966.306 94.4526L965.454 94.5272L960.502 86.0525L961.276 94.8927L959.51 95.0472ZM974.941 93.6971L973.812 80.7864L975.685 80.6225L976.815 93.5332L974.941 93.6971ZM979.507 93.2976L978.378 80.387L980.279 80.2207L987.475 89.2579L986.635 79.6645L988.536 79.4982L989.666 92.4089L987.765 92.5752L980.568 83.529L981.408 93.1313L979.507 93.2976ZM997.472 91.9969C996.606 92.0728 995.795 91.9931 995.039 91.7581C994.283 91.517 993.611 91.1302 993.022 90.5974C992.434 90.0647 991.954 89.396 991.582 88.5913C991.211 87.7867 990.979 86.8553 990.886 85.7974C990.764 84.4047 990.914 83.187 991.334 82.1444C991.754 81.0958 992.392 80.263 993.248 79.6461C994.103 79.0232 995.119 78.6603 996.297 78.5573C997.815 78.4244 999.056 78.6712 1000.02 79.2975C1000.99 79.9234 1001.69 80.8435 1002.13 82.058L1000.26 82.565C999.93 81.817 999.452 81.2384 998.826 80.8294C998.2 80.4204 997.445 80.2517 996.559 80.3231C995.644 80.3971 994.9 80.667 994.326 81.1328C993.759 81.598 993.355 82.2175 993.116 82.9914C992.876 83.7592 992.796 84.6365 992.876 85.6232C992.957 86.61 993.182 87.4606 993.551 88.1751C993.92 88.8837 994.428 89.4175 995.074 89.7765C995.725 90.1351 996.509 90.2774 997.424 90.2033C998.16 90.151 998.779 89.9613 999.28 89.6344C999.787 89.3009 1000.17 88.8457 1000.43 88.2686C1000.7 87.6915 1000.84 86.9985 1000.86 86.1897L998.348 86.4094L998.216 84.9031L1002.72 84.5094C1002.74 84.6159 1002.76 84.7586 1002.78 84.9374C1002.8 85.1102 1002.82 85.2205 1002.82 85.2683C1002.92 86.4637 1002.79 87.5508 1002.41 88.5295C1002.03 89.5082 1001.43 90.3049 1000.59 90.9197C999.762 91.5286 998.722 91.8876 997.472 91.9969ZM1013.42 90.6017C1012.49 90.6828 1011.64 90.5976 1010.87 90.3462C1010.1 90.0882 1009.45 89.6846 1008.91 89.1352C1008.38 88.5793 1008.01 87.8982 1007.79 87.0919L1009.72 86.625C1009.99 87.3968 1010.45 87.9763 1011.12 88.3637C1011.78 88.7452 1012.54 88.8993 1013.37 88.8261C1013.89 88.7806 1014.36 88.658 1014.79 88.4585C1015.21 88.2529 1015.54 87.9862 1015.77 87.6584C1016.01 87.3241 1016.12 86.9417 1016.08 86.5114C1016.06 86.2782 1016 86.0757 1015.9 85.9037C1015.81 85.7312 1015.68 85.5854 1015.53 85.4665C1015.38 85.3411 1015.2 85.2394 1014.99 85.1615C1014.78 85.0772 1014.55 85.0096 1014.31 84.9588L1010.91 84.271C1010.58 84.2036 1010.24 84.1098 1009.9 83.9897C1009.55 83.8635 1009.22 83.6902 1008.92 83.4698C1008.62 83.2428 1008.37 82.9546 1008.17 82.6051C1007.96 82.2497 1007.84 81.809 1007.79 81.283C1007.72 80.488 1007.86 79.7978 1008.22 79.2124C1008.59 78.6204 1009.11 78.1534 1009.78 77.8113C1010.45 77.4632 1011.22 77.2512 1012.09 77.1754C1012.97 77.111 1013.76 77.1982 1014.47 77.4369C1015.19 77.6751 1015.8 78.0552 1016.31 78.5773C1016.82 79.093 1017.19 79.7407 1017.43 80.5205L1015.46 81.0369C1015.32 80.5606 1015.1 80.1619 1014.77 79.8408C1014.45 79.5138 1014.07 79.2762 1013.63 79.128C1013.19 78.9739 1012.72 78.9155 1012.22 78.953C1011.74 78.9828 1011.31 79.093 1010.92 79.2834C1010.54 79.4734 1010.24 79.7192 1010.03 80.0211C1009.82 80.3224 1009.73 80.6554 1009.76 81.02C1009.79 81.3786 1009.92 81.6594 1010.15 81.8622C1010.38 82.0651 1010.65 82.2189 1010.97 82.3237C1011.29 82.4221 1011.61 82.4997 1011.92 82.5567L1014.36 83.0205C1014.67 83.0781 1015.02 83.1621 1015.41 83.2726C1015.8 83.3766 1016.19 83.5387 1016.56 83.7589C1016.94 83.9785 1017.27 84.2874 1017.54 84.6854C1017.81 85.0774 1017.97 85.5872 1018.02 86.2148C1018.08 86.8663 1018 87.4517 1017.78 87.9708C1017.56 88.4839 1017.23 88.928 1016.8 89.303C1016.38 89.6714 1015.87 89.9655 1015.29 90.1852C1014.71 90.4048 1014.08 90.5437 1013.42 90.6017ZM1025.67 89.5301C1024.38 89.6431 1023.25 89.4584 1022.29 88.976C1021.34 88.4877 1020.57 87.7596 1020 86.7918C1019.43 85.8235 1019.09 84.6729 1018.97 83.34C1018.86 82.0071 1018.99 80.8147 1019.38 79.7627C1019.78 78.7102 1020.41 77.8633 1021.27 77.2219C1022.13 76.5746 1023.2 76.1945 1024.49 76.0815C1025.78 75.9691 1026.9 76.157 1027.86 76.6454C1028.82 77.1272 1029.59 77.8523 1030.15 78.8206C1030.72 79.7889 1031.06 80.9395 1031.18 82.2724C1031.29 83.6053 1031.16 84.7978 1030.77 85.8498C1030.38 86.9017 1029.75 87.7516 1028.88 88.3995C1028.03 89.0408 1026.95 89.4177 1025.67 89.5301ZM1025.51 87.746C1026.43 87.6779 1027.17 87.4113 1027.74 86.946C1028.31 86.4743 1028.72 85.8545 1028.96 85.0866C1029.2 84.3128 1029.27 83.4328 1029.19 82.4466C1029.1 81.4603 1028.87 80.613 1028.5 79.9044C1028.13 79.1899 1027.63 78.6531 1026.98 78.2941C1026.34 77.9345 1025.56 77.7917 1024.65 77.8657C1023.73 77.9337 1022.99 78.2007 1022.41 78.6664C1021.85 79.1317 1021.44 79.7512 1021.2 80.525C1020.96 81.2988 1020.88 82.1791 1020.96 83.1659C1021.04 84.1526 1021.27 85.0032 1021.64 85.7177C1022.01 86.4263 1022.52 86.9601 1023.16 87.3192C1023.81 87.6777 1024.6 87.82 1025.51 87.746ZM1038.94 88.3689C1037.65 88.4818 1036.53 88.2971 1035.57 87.8147C1034.61 87.3264 1033.84 86.5983 1033.27 85.6305C1032.71 84.6622 1032.36 83.5116 1032.25 82.1787C1032.13 80.8458 1032.27 79.6534 1032.66 78.6014C1033.05 77.5489 1033.68 76.702 1034.54 76.0606C1035.4 75.4133 1036.47 75.0332 1037.76 74.9202C1039.05 74.8078 1040.17 74.9958 1041.13 75.4841C1042.09 75.9659 1042.86 76.691 1043.43 77.6593C1043.99 78.6276 1044.33 79.7782 1044.45 81.1111C1044.57 82.4441 1044.43 83.6365 1044.04 84.6885C1043.65 85.7405 1043.02 86.5904 1042.16 87.2382C1041.3 87.8795 1040.23 88.2564 1038.94 88.3689ZM1038.79 86.5847C1039.7 86.5166 1040.44 86.25 1041.01 85.7847C1041.58 85.313 1041.99 84.6932 1042.23 83.9254C1042.47 83.1515 1042.55 82.2715 1042.46 81.2853C1042.37 80.2991 1042.15 79.4517 1041.78 78.7432C1041.41 78.0287 1040.9 77.4919 1040.25 77.1328C1039.61 76.7732 1038.84 76.6304 1037.92 76.7044C1037.01 76.7725 1036.26 77.0394 1035.69 77.5051C1035.12 77.9704 1034.72 78.5899 1034.48 79.3637C1034.24 80.1375 1034.16 81.0178 1034.24 82.0046C1034.32 82.9913 1034.54 83.842 1034.91 84.5565C1035.28 85.265 1035.79 85.7988 1036.44 86.1579C1037.09 86.5164 1037.87 86.6587 1038.79 86.5847ZM1046.8 87.41L1045.67 74.4993L1047.57 74.3331L1054.77 83.3703L1053.93 73.7769L1055.83 73.6106L1056.96 86.5213L1055.06 86.6876L1047.86 77.6414L1048.7 87.2437L1046.8 87.41Z" fill="#0A0A0A"/>
<path d="M1076.16 65.7686L1082.14 65.2456L1072.69 90.1645L1066.71 90.6875L1076.16 65.7686Z" fill="#0A0A0A"/>
<path d="M1094.1 64.1997L1100.07 63.6768L1090.62 88.5957L1084.64 89.1186L1094.1 64.1997Z" fill="#0A0A0A"/>
<path d="M1112.03 62.6309L1118 62.1079L1108.55 87.0269L1102.57 87.5498L1112.03 62.6309Z" fill="#0A0A0A"/>
<path d="M1129.96 61.062L1135.94 60.5391L1126.48 85.458L1120.5 85.9809L1129.96 61.062Z" fill="#0A0A0A"/>
<path d="M1152.32 78.4489C1151.03 78.5618 1149.91 78.3771 1148.95 77.8948C1147.99 77.4064 1147.23 76.6784 1146.65 75.7106C1146.09 74.7423 1145.75 73.5917 1145.63 72.2587C1145.51 70.9258 1145.65 69.7334 1146.04 68.6814C1146.44 67.6289 1147.06 66.782 1147.92 66.1407C1148.78 65.4933 1149.86 65.1132 1151.15 65.0003C1152.64 64.87 1153.9 65.1389 1154.94 65.8068C1155.99 66.4741 1156.76 67.4276 1157.25 68.6673L1155.39 69.3447C1155.06 68.4641 1154.55 67.795 1153.86 67.3374C1153.18 66.8794 1152.33 66.695 1151.3 66.7844C1150.39 66.8645 1149.64 67.1373 1149.07 67.6031C1148.5 68.0689 1148.09 68.6859 1147.84 69.4543C1147.6 70.2221 1147.53 71.0992 1147.61 72.0854C1147.69 73.0722 1147.92 73.9228 1148.29 74.6373C1148.66 75.3513 1149.17 75.8878 1149.82 76.2469C1150.47 76.6054 1151.25 76.7447 1152.17 76.6647C1153.19 76.5753 1154 76.2456 1154.59 75.6756C1155.19 75.0991 1155.58 74.3516 1155.75 73.433L1157.7 73.7778C1157.43 75.0844 1156.83 76.1571 1155.92 76.996C1155.01 77.8344 1153.81 78.3187 1152.32 78.4489ZM1165.42 77.3029C1164.13 77.4159 1163.01 77.2312 1162.05 76.7488C1161.09 76.2605 1160.33 75.5324 1159.75 74.5646C1159.19 73.5963 1158.85 72.4457 1158.73 71.1128C1158.61 69.7799 1158.75 68.5874 1159.14 67.5355C1159.53 66.483 1160.16 65.636 1161.02 64.9947C1161.88 64.3474 1162.95 63.9672 1164.25 63.8543C1165.53 63.7419 1166.65 63.9298 1167.61 64.4182C1168.57 64.9 1169.34 65.6251 1169.91 66.5934C1170.47 67.5617 1170.81 68.7123 1170.93 70.0452C1171.05 71.3781 1170.91 72.5706 1170.52 73.6225C1170.13 74.6745 1169.5 75.5244 1168.64 76.1723C1167.78 76.8136 1166.71 77.1905 1165.42 77.3029ZM1165.27 75.5187C1166.18 75.4507 1166.92 75.184 1167.49 74.7188C1168.06 74.2471 1168.47 73.6273 1168.71 72.8594C1168.95 72.0856 1169.03 71.2056 1168.94 70.2194C1168.85 69.2331 1168.63 68.3857 1168.26 67.6772C1167.89 66.9627 1167.38 66.4259 1166.73 66.0668C1166.09 65.7072 1165.32 65.5644 1164.4 65.6385C1163.49 65.7065 1162.74 65.9734 1162.17 66.4392C1161.6 66.9044 1161.2 67.524 1160.96 68.2978C1160.72 69.0716 1160.64 69.9519 1160.72 70.9386C1160.8 71.9254 1161.02 72.776 1161.39 73.4905C1161.76 74.1991 1162.27 74.7329 1162.92 75.0919C1163.57 75.4505 1164.35 75.5928 1165.27 75.5187ZM1173.28 76.3441L1172.15 63.4334L1173.85 63.2852L1179.38 72.5856L1183.18 62.4686L1184.89 62.3188L1186.02 75.2205L1184.25 75.3758L1183.48 66.5445L1180.08 75.7495L1179.23 75.824L1174.28 67.3493L1175.05 76.1896L1173.28 76.3441ZM1188.72 74.994L1187.59 62.0833L1189.46 61.9194L1190.59 74.8301L1188.72 74.994ZM1193.28 74.5945L1192.15 61.6838L1194.05 61.5175L1201.25 70.5547L1200.41 60.9614L1202.31 60.7951L1203.44 73.7058L1201.54 73.8721L1194.34 64.8259L1195.18 74.4282L1193.28 74.5945ZM1211.25 73.2938C1210.38 73.3696 1209.57 73.29 1208.81 73.055C1208.06 72.8139 1207.39 72.427 1206.8 71.8943C1206.21 71.3616 1205.73 70.6929 1205.36 69.8882C1204.98 69.0835 1204.75 68.1522 1204.66 67.0943C1204.54 65.7016 1204.69 64.4839 1205.11 63.4413C1205.53 62.3927 1206.17 61.5599 1207.02 60.943C1207.88 60.3201 1208.89 59.9572 1210.07 59.8541C1211.59 59.7213 1212.83 59.9681 1213.79 60.5944C1214.76 61.2202 1215.47 62.1404 1215.91 63.3549L1214.04 63.8619C1213.7 63.1138 1213.23 62.5353 1212.6 62.1263C1211.97 61.7173 1211.22 61.5485 1210.33 61.62C1209.42 61.694 1208.67 61.9639 1208.1 62.4296C1207.53 62.8949 1207.13 63.5144 1206.89 64.2882C1206.65 65.0561 1206.57 65.9334 1206.65 66.9201C1206.73 67.9069 1206.96 68.7575 1207.33 69.472C1207.69 70.1805 1208.2 70.7143 1208.85 71.0734C1209.5 71.432 1210.28 71.5742 1211.2 71.5002C1211.93 71.4478 1212.55 71.2582 1213.05 70.9312C1213.56 70.5978 1213.95 70.1425 1214.21 69.5654C1214.47 68.9883 1214.61 68.2954 1214.63 67.4866L1212.12 67.7063L1211.99 66.2L1216.49 65.8062C1216.51 65.9128 1216.53 66.0555 1216.56 66.2342C1216.58 66.4071 1216.59 66.5174 1216.59 66.5652C1216.7 67.7606 1216.56 68.8477 1216.18 69.8264C1215.81 70.805 1215.2 71.6018 1214.37 72.2166C1213.54 72.8254 1212.5 73.1845 1211.25 73.2938ZM1227.19 71.8986C1226.27 71.9796 1225.42 71.8945 1224.64 71.643C1223.87 71.3851 1223.22 70.9815 1222.68 70.4321C1222.15 69.8762 1221.78 69.1951 1221.57 68.3888L1223.49 67.9219C1223.76 68.6936 1224.23 69.2732 1224.89 69.6606C1225.56 70.042 1226.31 70.1961 1227.15 70.1229C1227.67 70.0774 1228.14 69.9549 1228.56 69.7553C1228.98 69.5498 1229.31 69.2831 1229.55 68.9553C1229.79 68.6209 1229.89 68.2386 1229.85 67.8082C1229.83 67.5751 1229.77 67.3726 1229.67 67.2006C1229.58 67.0281 1229.46 66.8823 1229.3 66.7634C1229.15 66.6379 1228.97 66.5363 1228.76 66.4584C1228.55 66.3741 1228.33 66.3065 1228.08 66.2557L1224.69 65.5679C1224.36 65.5005 1224.02 65.4067 1223.67 65.2865C1223.32 65.1604 1223 64.9871 1222.69 64.7666C1222.4 64.5396 1222.15 64.2514 1221.94 63.902C1221.74 63.5466 1221.61 63.1059 1221.56 62.5799C1221.49 61.7849 1221.64 61.0947 1222 60.5092C1222.36 59.9173 1222.88 59.4502 1223.55 59.1081C1224.23 58.76 1225 58.5481 1225.87 58.4723C1226.74 58.4079 1227.53 58.495 1228.25 58.7338C1228.97 58.972 1229.58 59.3521 1230.08 59.8742C1230.59 60.3898 1230.97 61.0375 1231.21 61.8173L1229.23 62.3337C1229.1 61.8574 1228.87 61.4587 1228.55 61.1377C1228.22 60.8107 1227.84 60.5731 1227.4 60.4249C1226.96 60.2708 1226.49 60.2124 1225.99 60.2498C1225.52 60.2797 1225.08 60.3899 1224.7 60.5803C1224.31 60.7702 1224.02 61.0161 1223.8 61.318C1223.59 61.6193 1223.51 61.9523 1223.54 62.3169C1223.57 62.6755 1223.7 62.9562 1223.93 63.1591C1224.16 63.3619 1224.43 63.5158 1224.74 63.6206C1225.07 63.7189 1225.38 63.7966 1225.7 63.8536L1228.14 64.3174C1228.45 64.3749 1228.79 64.4589 1229.18 64.5695C1229.58 64.6735 1229.96 64.8356 1230.34 65.0557C1230.72 65.2754 1231.04 65.5842 1231.31 65.9823C1231.58 66.3743 1231.74 66.8841 1231.8 67.5117C1231.85 68.1632 1231.77 68.7485 1231.55 69.2676C1231.33 69.7808 1231.01 70.2248 1230.58 70.5998C1230.15 70.9683 1229.65 71.2624 1229.06 71.482C1228.48 71.7017 1227.86 71.8405 1227.19 71.8986ZM1239.44 70.827C1238.15 70.94 1237.03 70.7553 1236.07 70.2729C1235.11 69.7845 1234.35 69.0565 1233.77 68.0887C1233.21 67.1204 1232.86 65.9698 1232.75 64.6369C1232.63 63.304 1232.77 62.1115 1233.16 61.0595C1233.55 60.0071 1234.18 59.1601 1235.04 58.5188C1235.9 57.8715 1236.97 57.4913 1238.27 57.3784C1239.55 57.266 1240.67 57.4539 1241.63 57.9423C1242.59 58.4241 1243.36 59.1492 1243.93 60.1175C1244.49 61.0858 1244.83 62.2364 1244.95 63.5693C1245.07 64.9022 1244.93 66.0947 1244.54 67.1466C1244.15 68.1986 1243.52 69.0485 1242.66 69.6964C1241.8 70.3377 1240.73 70.7146 1239.44 70.827ZM1239.29 69.0428C1240.2 68.9748 1240.94 68.7081 1241.51 68.2429C1242.08 67.7711 1242.49 67.1514 1242.73 66.3835C1242.97 65.6097 1243.05 64.7297 1242.96 63.7434C1242.87 62.7572 1242.65 61.9098 1242.28 61.2013C1241.91 60.4868 1241.4 59.95 1240.75 59.5909C1240.11 59.2313 1239.34 59.0885 1238.42 59.1626C1237.51 59.2306 1236.76 59.4975 1236.19 59.9633C1235.62 60.4285 1235.22 61.0481 1234.98 61.8219C1234.74 62.5957 1234.66 63.476 1234.74 64.4627C1234.82 65.4495 1235.04 66.3001 1235.41 67.0146C1235.78 67.7231 1236.29 68.2569 1236.94 68.616C1237.59 68.9746 1238.37 69.1169 1239.29 69.0428ZM1252.72 69.6657C1251.42 69.7787 1250.3 69.594 1249.34 69.1116C1248.38 68.6233 1247.62 67.8952 1247.05 66.9274C1246.48 65.9591 1246.14 64.8085 1246.02 63.4756C1245.91 62.1427 1246.04 60.9502 1246.43 59.8983C1246.83 58.8458 1247.46 57.9988 1248.31 57.3575C1249.17 56.7102 1250.25 56.3301 1251.54 56.2171C1252.82 56.1047 1253.95 56.2926 1254.9 56.781C1255.87 57.2628 1256.63 57.9879 1257.2 58.9562C1257.77 59.9245 1258.11 61.0751 1258.22 62.408C1258.34 63.7409 1258.2 64.9334 1257.81 65.9854C1257.42 67.0373 1256.8 67.8872 1255.93 68.5351C1255.07 69.1764 1254 69.5533 1252.72 69.6657ZM1252.56 67.8815C1253.48 67.8135 1254.22 67.5468 1254.78 67.0816C1255.36 66.6099 1255.76 65.9901 1256 65.2222C1256.24 64.4484 1256.32 63.5684 1256.23 62.5822C1256.15 61.5959 1255.92 60.7486 1255.55 60.04C1255.18 59.3255 1254.67 58.7887 1254.03 58.4297C1253.39 58.07 1252.61 57.9273 1251.7 58.0013C1250.78 58.0693 1250.04 58.3363 1249.46 58.802C1248.89 59.2673 1248.49 59.8868 1248.25 60.6606C1248.01 61.4344 1247.93 62.3147 1248.01 63.3015C1248.09 64.2882 1248.32 65.1388 1248.69 65.8533C1249.06 66.5619 1249.56 67.0957 1250.21 67.4548C1250.86 67.8133 1251.64 67.9556 1252.56 67.8815ZM1260.58 68.7069L1259.45 55.7962L1261.35 55.6299L1268.54 64.6671L1267.71 55.0738L1269.61 54.9075L1270.74 67.8182L1268.83 67.9845L1261.64 58.9383L1262.48 68.5406L1260.58 68.7069Z" fill="#0A0A0A"/>
<path d="M1289.94 47.0655L1295.92 46.5425L1286.46 71.4614L1280.48 71.9844L1289.94 47.0655Z" fill="#0A0A0A"/>
<path d="M1307.87 45.4966L1313.85 44.9737L1304.39 69.8926L1298.41 70.4155L1307.87 45.4966Z" fill="#0A0A0A"/>
<path d="M1325.8 43.9278L1331.78 43.4048L1322.32 68.3237L1316.35 68.8467L1325.8 43.9278Z" fill="#0A0A0A"/>
<path d="M1343.73 42.3589L1349.71 41.836L1340.26 66.7549L1334.28 67.2778L1343.73 42.3589Z" fill="#0A0A0A"/>
<path d="M1366.1 59.7462C1364.81 59.8592 1363.68 59.6745 1362.73 59.1921C1361.77 58.7038 1361 57.9757 1360.43 57.0079C1359.86 56.0396 1359.52 54.889 1359.4 53.5561C1359.29 52.2232 1359.42 51.0308 1359.81 49.9788C1360.21 48.9263 1360.84 48.0794 1361.7 47.438C1362.56 46.7907 1363.63 46.4106 1364.92 46.2976C1366.41 46.1674 1367.67 46.4362 1368.71 47.1041C1369.76 47.7715 1370.53 48.725 1371.02 49.9647L1369.17 50.642C1368.84 49.7614 1368.33 49.0924 1367.64 48.6348C1366.95 48.1767 1366.1 47.9924 1365.08 48.0818C1364.16 48.1618 1363.42 48.4347 1362.85 48.9005C1362.27 49.3662 1361.86 49.9833 1361.62 50.7517C1361.38 51.5195 1361.3 52.3965 1361.39 53.3828C1361.47 54.3695 1361.69 55.2201 1362.06 55.9346C1362.44 56.6486 1362.95 57.1851 1363.59 57.5442C1364.24 57.9028 1365.03 58.0421 1365.94 57.9621C1366.96 57.8726 1367.77 57.5429 1368.37 56.9729C1368.97 56.3965 1369.35 55.6489 1369.53 54.7304L1371.47 55.0752C1371.2 56.3818 1370.61 57.4545 1369.69 58.2934C1368.79 59.1318 1367.59 59.616 1366.1 59.7462ZM1379.2 58.6003C1377.91 58.7132 1376.78 58.5285 1375.82 58.0462C1374.87 57.5578 1374.1 56.8298 1373.53 55.862C1372.96 54.8937 1372.62 53.7431 1372.5 52.4102C1372.39 51.0772 1372.52 49.8848 1372.91 48.8328C1373.31 47.7803 1373.94 46.9334 1374.8 46.2921C1375.65 45.6447 1376.73 45.2646 1378.02 45.1517C1379.31 45.0392 1380.43 45.2272 1381.39 45.7155C1382.35 46.1974 1383.11 46.9224 1383.68 47.8908C1384.25 48.8591 1384.59 50.0097 1384.71 51.3426C1384.82 52.6755 1384.69 53.8679 1384.3 54.9199C1383.91 55.9719 1383.28 56.8218 1382.41 57.4696C1381.55 58.111 1380.48 58.4879 1379.2 58.6003ZM1379.04 56.8161C1379.96 56.748 1380.7 56.4814 1381.27 56.0162C1381.84 55.5444 1382.25 54.9246 1382.49 54.1568C1382.72 53.383 1382.8 52.5029 1382.71 51.5167C1382.63 50.5305 1382.4 49.6831 1382.03 48.9746C1381.66 48.2601 1381.15 47.7233 1380.51 47.3642C1379.87 47.0046 1379.09 46.8618 1378.18 46.9358C1377.26 47.0039 1376.52 47.2708 1375.94 47.7366C1375.37 48.2018 1374.97 48.8213 1374.73 49.5952C1374.49 50.369 1374.41 51.2493 1374.49 52.236C1374.57 53.2228 1374.8 54.0734 1375.17 54.7879C1375.54 55.4964 1376.04 56.0302 1376.69 56.3893C1377.34 56.7479 1378.13 56.8901 1379.04 56.8161ZM1387.06 57.6415L1385.93 44.7308L1387.62 44.5825L1393.15 53.883L1396.96 43.766L1398.67 43.6161L1399.8 56.5179L1398.02 56.6732L1397.25 47.8419L1393.85 57.0469L1393 57.1214L1388.05 48.6467L1388.82 57.4869L1387.06 57.6415ZM1402.49 56.2914L1401.36 43.3807L1403.23 43.2167L1404.36 56.1274L1402.49 56.2914ZM1407.06 55.8919L1405.93 42.9812L1407.83 42.8149L1415.02 51.8521L1414.18 42.2588L1416.08 42.0925L1417.21 55.0031L1415.31 55.1694L1408.12 46.1233L1408.96 55.7256L1407.06 55.8919ZM1425.02 54.5912C1424.15 54.667 1423.34 54.5874 1422.59 54.3523C1421.83 54.1113 1421.16 53.7244 1420.57 53.1917C1419.98 52.659 1419.5 51.9903 1419.13 51.1856C1418.76 50.3809 1418.53 49.4496 1418.43 48.3916C1418.31 46.9989 1418.46 45.7813 1418.88 44.7386C1419.3 43.69 1419.94 42.8573 1420.8 42.2404C1421.65 41.6175 1422.67 41.2545 1423.85 41.1515C1425.36 41.0187 1426.6 41.2654 1427.57 41.8918C1428.54 42.5176 1429.24 43.4378 1429.68 44.6522L1427.81 45.1592C1427.48 44.4112 1427 43.8327 1426.38 43.4237C1425.75 43.0147 1424.99 42.8459 1424.11 42.9173C1423.19 42.9913 1422.45 43.2612 1421.88 43.727C1421.31 44.1923 1420.9 44.8118 1420.66 45.5856C1420.42 46.3534 1420.34 47.2307 1420.43 48.2175C1420.51 49.2042 1420.73 50.0549 1421.1 50.7694C1421.47 51.4779 1421.98 52.0117 1422.62 52.3708C1423.27 52.7293 1424.06 52.8716 1424.97 52.7976C1425.71 52.7452 1426.33 52.5556 1426.83 52.2286C1427.34 51.8952 1427.72 51.4399 1427.98 50.8628C1428.25 50.2857 1428.39 49.5928 1428.41 48.784L1425.9 49.0036L1425.76 47.4974L1430.27 47.1036C1430.29 47.2101 1430.31 47.3528 1430.33 47.5316C1430.35 47.7044 1430.36 47.8147 1430.37 47.8626C1430.47 49.058 1430.34 50.145 1429.96 51.1237C1429.58 52.1024 1428.97 52.8992 1428.14 53.514C1427.31 54.1228 1426.27 54.4819 1425.02 54.5912ZM1440.97 53.196C1440.04 53.277 1439.19 53.1918 1438.42 52.9404C1437.65 52.6825 1436.99 52.2788 1436.46 51.7294C1435.93 51.1736 1435.56 50.4925 1435.34 49.6861L1437.27 49.2193C1437.54 49.991 1438 50.5706 1438.67 50.958C1439.33 51.3394 1440.08 51.4935 1440.92 51.4203C1441.44 51.3748 1441.91 51.2523 1442.33 51.0527C1442.76 50.8472 1443.09 50.5805 1443.32 50.2526C1443.56 49.9183 1443.67 49.5359 1443.63 49.1056C1443.61 48.8725 1443.55 48.6699 1443.45 48.4979C1443.36 48.3254 1443.23 48.1797 1443.08 48.0607C1442.93 47.9353 1442.75 47.8336 1442.53 47.7558C1442.33 47.6714 1442.1 47.6038 1441.86 47.553L1438.46 46.8652C1438.13 46.7978 1437.79 46.704 1437.44 46.5839C1437.1 46.4578 1436.77 46.2845 1436.47 46.064C1436.17 45.837 1435.92 45.5488 1435.72 45.1993C1435.51 44.8439 1435.38 44.4032 1435.34 43.8772C1435.27 43.0823 1435.41 42.3921 1435.77 41.8066C1436.13 41.2146 1436.65 40.7476 1437.33 40.4055C1438 40.0574 1438.77 39.8455 1439.64 39.7696C1440.51 39.7052 1441.31 39.7924 1442.02 40.0311C1442.74 40.2693 1443.35 40.6495 1443.86 41.1716C1444.36 41.6872 1444.74 42.3349 1444.98 43.1147L1443 43.6311C1442.87 43.1548 1442.65 42.7561 1442.32 42.4351C1442 42.108 1441.62 41.8704 1441.18 41.7223C1440.73 41.5681 1440.27 41.5098 1439.77 41.5472C1439.29 41.5771 1438.86 41.6872 1438.47 41.8777C1438.09 42.0676 1437.79 42.3135 1437.58 42.6153C1437.37 42.9167 1437.28 43.2496 1437.31 43.6142C1437.34 43.9729 1437.47 44.2536 1437.7 44.4564C1437.93 44.6593 1438.2 44.8131 1438.52 44.918C1438.84 45.0163 1439.16 45.094 1439.47 45.151L1441.91 45.6148C1442.22 45.6723 1442.57 45.7563 1442.96 45.8668C1443.35 45.9708 1443.74 46.1329 1444.11 46.3531C1444.49 46.5728 1444.82 46.8816 1445.09 47.2796C1445.35 47.6716 1445.52 48.1815 1445.57 48.8091C1445.63 49.4606 1445.55 50.0459 1445.33 50.565C1445.11 51.0781 1444.78 51.5222 1444.35 51.8972C1443.93 52.2657 1443.42 52.5598 1442.84 52.7794C1442.26 52.9991 1441.63 53.1379 1440.97 53.196ZM1453.22 52.1244C1451.93 52.2373 1450.8 52.0526 1449.84 51.5703C1448.89 51.0819 1448.12 50.3538 1447.55 49.3861C1446.98 48.4178 1446.64 47.2671 1446.52 45.9342C1446.41 44.6013 1446.54 43.4089 1446.93 42.3569C1447.33 41.3044 1447.96 40.4575 1448.82 39.8162C1449.67 39.1688 1450.75 38.7887 1452.04 38.6757C1453.33 38.5633 1454.45 38.7513 1455.41 39.2396C1456.37 39.7215 1457.13 40.4465 1457.7 41.4148C1458.27 42.3832 1458.61 43.5338 1458.73 44.8667C1458.84 46.1996 1458.71 47.392 1458.32 48.444C1457.93 49.496 1457.3 50.3459 1456.43 50.9937C1455.57 51.6351 1454.5 52.0119 1453.22 52.1244ZM1453.06 50.3402C1453.98 50.2721 1454.72 50.0055 1455.29 49.5402C1455.86 49.0685 1456.27 48.4487 1456.51 47.6809C1456.74 46.9071 1456.82 46.027 1456.73 45.0408C1456.65 44.0546 1456.42 43.2072 1456.05 42.4987C1455.68 41.7842 1455.17 41.2474 1454.53 40.8883C1453.89 40.5287 1453.11 40.3859 1452.2 40.4599C1451.28 40.528 1450.54 40.7949 1449.96 41.2607C1449.39 41.7259 1448.99 42.3454 1448.75 43.1192C1448.51 43.8931 1448.43 44.7733 1448.51 45.7601C1448.59 46.7469 1448.82 47.5975 1449.19 48.312C1449.56 49.0205 1450.06 49.5543 1450.71 49.9134C1451.36 50.272 1452.15 50.4142 1453.06 50.3402ZM1466.49 50.9631C1465.2 51.076 1464.07 50.8913 1463.12 50.409C1462.16 49.9206 1461.39 49.1926 1460.82 48.2248C1460.25 47.2565 1459.91 46.1059 1459.8 44.773C1459.68 43.44 1459.82 42.2476 1460.21 41.1956C1460.6 40.1431 1461.23 39.2962 1462.09 38.6549C1462.95 38.0076 1464.02 37.6274 1465.31 37.5145C1466.6 37.402 1467.72 37.59 1468.68 38.0783C1469.64 38.5602 1470.41 39.2853 1470.97 40.2536C1471.54 41.2219 1471.88 42.3725 1472 43.7054C1472.12 45.0383 1471.98 46.2307 1471.59 47.2827C1471.2 48.3347 1470.57 49.1846 1469.71 49.8324C1468.85 50.4738 1467.78 50.8507 1466.49 50.9631ZM1466.33 49.1789C1467.25 49.1109 1467.99 48.8442 1468.56 48.379C1469.13 47.9072 1469.54 47.2874 1469.78 46.5196C1470.02 45.7458 1470.09 44.8658 1470.01 43.8795C1469.92 42.8933 1469.69 42.0459 1469.33 41.3374C1468.96 40.6229 1468.45 40.0861 1467.8 39.727C1467.16 39.3674 1466.38 39.2246 1465.47 39.2987C1464.55 39.3667 1463.81 39.6336 1463.24 40.0994C1462.67 40.5646 1462.26 41.1841 1462.03 41.958C1461.79 42.7318 1461.71 43.6121 1461.79 44.5988C1461.87 45.5856 1462.09 46.4362 1462.46 47.1507C1462.83 47.8592 1463.34 48.393 1463.98 48.7521C1464.64 49.1107 1465.42 49.2529 1466.33 49.1789ZM1474.35 50.0043L1473.22 37.0936L1475.12 36.9273L1482.32 45.9645L1481.48 36.3711L1483.38 36.2049L1484.51 49.1155L1482.61 49.2818L1475.41 40.2357L1476.25 49.838L1474.35 50.0043Z" fill="#0A0A0A"/>
</g>
<defs>
<filter id="filter0_d_18_51742" x="-310" y="0" width="2011.88" height="230.159" filterUnits="userSpaceOnUse" color-interpolation-filters="sRGB">
<feFlood flood-opacity="0" result="BackgroundImageFix"/>
<feColorMatrix in="SourceAlpha" type="matrix" values="0 0 0 0 0 0 0 0 0 0 0 0 0 0 0 0 0 0 127 0" result="hardAlpha"/>
<feOffset dy="4"/>
<feGaussianBlur stdDeviation="4"/>
<feComposite in2="hardAlpha" operator="out"/>
<feColorMatrix type="matrix" values="0 0 0 0 0 0 0 0 0 0 0 0 0 0 0 0 0 0 0.16 0"/>
<feBlend mode="normal" in2="BackgroundImageFix" result="effect1_dropShadow_18_51742"/>
<feBlend mode="normal" in="SourceGraphic" in2="effect1_dropShadow_18_51742" result="shape"/>
</filter>
<clipPath id="clip0_18_51742">
<rect width="2000" height="40" fill="white" transform="translate(-302 178.312) rotate(-5)"/>
</clipPath>
</defs>
</svg>
