<svg width="230" height="38" viewBox="0 0 230 38" fill="none" xmlns="http://www.w3.org/2000/svg">
<path fill-rule="evenodd" clip-rule="evenodd" d="M200 15C202.317 14.8747 204.34 14.5315 206.087 13.9528C210.079 12.6306 212.631 10.079 213.953 6.08736C214.531 4.34007 214.875 2.31684 215 0C215.125 2.31684 215.468 4.34007 216.047 6.08736C217.369 10.079 219.921 12.6306 223.913 13.9528C225.66 14.5315 227.683 14.8747 230 15C227.683 15.1253 225.66 15.4685 223.913 16.0472C219.921 17.3694 217.369 19.921 216.047 23.9126C215.468 25.6599 215.125 27.6832 215 30C214.875 27.6832 214.531 25.6599 213.953 23.9126C213.31 21.9717 212.376 20.3712 211.128 19.087C203.688 23.4781 191.319 29.377 177.356 33.2228C163.163 37.1317 147.207 38.9517 133.081 34.7953C125.837 32.6638 121.192 30.2203 118.457 27.6729C116.077 29.5059 113.244 31.2662 109.977 32.7979C99.127 37.8844 83.4925 40.449 63.7319 34.7974C58.768 33.3777 55.2898 31.5816 53.0544 29.507C52.5315 29.0217 52.077 28.5213 51.6882 28.0082C49.2672 28.3412 46.7676 28.5792 44.2262 28.7362C28.9147 29.6823 11.8538 27.7019 0.811759 25.5863C0.26934 25.4824 -0.0861325 24.9584 0.0177893 24.416C0.121711 23.8736 0.645674 23.5181 1.18809 23.622C12.1252 25.7175 29.0099 27.6726 44.1029 26.74C46.3127 26.6035 48.479 26.4053 50.5786 26.1377C50.0693 24.9806 49.8461 23.7788 49.8808 22.5563C49.9497 20.1325 51.0281 17.7549 52.6255 15.5957C54.2281 13.4295 56.4013 11.4163 58.7826 9.70202C61.1662 7.98598 63.7871 6.54868 66.3089 5.5472C68.817 4.55111 71.2918 3.96042 73.3681 4.00207C75.4343 4.04351 77.3479 4.73327 78.258 6.56728C79.1275 8.31922 78.8824 10.7587 77.6311 13.8085C75.5337 18.9204 70.9179 22.4105 65.0381 24.7326C61.742 26.0343 58.0093 26.9856 54.0182 27.6537C54.1441 27.7833 54.2763 27.9124 54.4149 28.041C56.3311 29.8194 59.4773 31.5004 64.2819 32.8745C83.5953 38.3982 98.7316 35.8609 109.128 30.987C112.201 29.5464 114.86 27.9016 117.092 26.1999C117.064 26.1644 117.036 26.129 117.009 26.0936C115.799 24.5169 115.244 22.9089 115.218 21.3487C115.192 19.797 115.691 18.3715 116.46 17.1484C117.976 14.7347 120.62 12.9802 122.868 12.3724C123.972 12.074 125.178 11.9997 126.131 12.4845C126.633 12.7401 127.045 13.1439 127.294 13.6954C127.536 14.2333 127.595 14.8455 127.518 15.4899C127.237 17.8738 125.474 20.9537 122.563 24.0039C121.803 24.8007 120.957 25.6029 120.028 26.3985C122.451 28.5638 126.69 30.83 133.646 32.8766C147.262 36.883 162.798 35.1579 176.825 31.2946C190.226 27.6037 202.143 21.9905 209.508 17.7177C208.513 17.0282 207.375 16.4737 206.087 16.0472C204.34 15.4685 202.317 15.1253 200 15ZM212.435 17.5646C211.386 16.5149 210.175 15.6678 208.813 15C210.175 14.3322 211.386 13.4851 212.435 12.4354C213.485 11.3856 214.332 10.175 215 8.81324C215.668 10.175 216.515 11.3856 217.565 12.4354C218.614 13.4851 219.825 14.3322 221.187 15C219.825 15.6678 218.614 16.5149 217.565 17.5646C216.515 18.6144 215.668 19.825 215 21.1868C214.332 19.825 213.485 18.6144 212.435 17.5646ZM51.88 22.6131C51.8493 23.6926 52.0799 24.7776 52.6618 25.8456C56.9348 25.1901 60.8851 24.2224 64.3035 22.8724C69.9171 20.6554 73.9708 17.4606 75.7808 13.0493C76.9716 10.147 76.9402 8.41094 76.4665 7.45636C76.0335 6.58386 75.0471 6.03614 73.328 6.00167C71.6189 5.96739 69.4231 6.46234 67.0471 7.40598C64.6845 8.34424 62.2075 9.70076 59.9511 11.3252C57.6923 12.9513 55.6834 14.8252 54.2333 16.7852C52.7781 18.7522 51.9333 20.74 51.88 22.6131ZM121.116 22.6232C120.382 23.3926 119.559 24.1711 118.649 24.9454C118.631 24.9223 118.613 24.8992 118.596 24.8761C117.615 23.5981 117.236 22.3972 117.218 21.3154C117.2 20.2251 117.548 19.1756 118.153 18.2123C119.384 16.2531 121.594 14.7887 123.39 14.3032C124.309 14.055 124.923 14.1141 125.224 14.2671C125.348 14.3303 125.421 14.4086 125.471 14.5176C125.526 14.6402 125.578 14.8668 125.532 15.255C125.326 17.0011 123.914 19.691 121.116 22.6232Z" fill="url(#paint0_linear_13_6893)"/>
<defs>
<linearGradient id="paint0_linear_13_6893" x1="-0.000244141" y1="19" x2="230" y2="19" gradientUnits="userSpaceOnUse">
<stop stop-color="#E2FF24"/>
<stop offset="1" stop-color="#24FE41"/>
</linearGradient>
</defs>
</svg>
