<svg width="129" height="28" viewBox="0 0 129 28" fill="none" xmlns="http://www.w3.org/2000/svg">
<path d="M7.6 20.5L2.8 15.7L7.6 10.9L9.1 12.39L5.68 15.7L9.1 19.01L7.6 20.5ZM17.7939 7.6H20.2139L16.3739 22H13.9539L17.7939 7.6ZM121.058 20.5L119.568 19.01L122.978 15.7L119.568 12.39L121.058 10.9L125.868 15.7L121.058 20.5Z" fill="url(#paint0_linear_240_1691)"/>
<path d="M28.1363 22.3C27.0829 22.3 26.1329 22.1167 25.2863 21.75C24.4463 21.3833 23.7529 20.86 23.2063 20.18C22.6663 19.4933 22.3229 18.68 22.1763 17.74L24.6763 17.36C24.8896 18.2133 25.3263 18.8733 25.9863 19.34C26.6529 19.8067 27.4196 20.04 28.2863 20.04C28.7996 20.04 29.2829 19.96 29.7363 19.8C30.1896 19.64 30.5563 19.4067 30.8363 19.1C31.1229 18.7933 31.2663 18.4167 31.2663 17.97C31.2663 17.77 31.2329 17.5867 31.1663 17.42C31.0996 17.2467 30.9996 17.0933 30.8663 16.96C30.7396 16.8267 30.5729 16.7067 30.3663 16.6C30.1663 16.4867 29.9329 16.39 29.6663 16.31L25.9463 15.21C25.6263 15.1167 25.2796 14.9933 24.9063 14.84C24.5396 14.68 24.1896 14.4633 23.8563 14.19C23.5296 13.91 23.2596 13.5567 23.0463 13.13C22.8396 12.6967 22.7363 12.1633 22.7363 11.53C22.7363 10.6033 22.9696 9.82667 23.4363 9.2C23.9096 8.56667 24.5429 8.09333 25.3363 7.78C26.1363 7.46667 27.0229 7.31333 27.9963 7.32C28.9829 7.32667 29.8629 7.49667 30.6363 7.83C31.4096 8.15667 32.0563 8.63333 32.5763 9.26C33.0963 9.88667 33.4629 10.6433 33.6763 11.53L31.0863 11.98C30.9796 11.4733 30.7729 11.0433 30.4663 10.69C30.1663 10.33 29.7963 10.0567 29.3563 9.87C28.9229 9.68333 28.4596 9.58333 27.9663 9.57C27.4863 9.56333 27.0396 9.63667 26.6263 9.79C26.2196 9.93667 25.8896 10.15 25.6363 10.43C25.3896 10.71 25.2663 11.0367 25.2663 11.41C25.2663 11.7633 25.3729 12.0533 25.5863 12.28C25.7996 12.5 26.0629 12.6767 26.3763 12.81C26.6963 12.9367 27.0196 13.0433 27.3463 13.13L29.9263 13.85C30.2796 13.9433 30.6763 14.07 31.1163 14.23C31.5563 14.39 31.9796 14.6133 32.3863 14.9C32.7929 15.1867 33.1263 15.5633 33.3863 16.03C33.6529 16.4967 33.7863 17.09 33.7863 17.81C33.7863 18.5567 33.6296 19.2133 33.3163 19.78C33.0096 20.34 32.5929 20.8067 32.0663 21.18C31.5396 21.5533 30.9363 21.8333 30.2563 22.02C29.5829 22.2067 28.8763 22.3 28.1363 22.3ZM40.8608 22.3C39.7674 22.3 38.8074 22.0633 37.9808 21.59C37.1541 21.1167 36.5074 20.46 36.0408 19.62C35.5808 18.78 35.3508 17.8133 35.3508 16.72C35.3508 15.54 35.5774 14.5167 36.0308 13.65C36.4841 12.7767 37.1141 12.1 37.9208 11.62C38.7274 11.14 39.6608 10.9 40.7208 10.9C41.8408 10.9 42.7908 11.1633 43.5708 11.69C44.3574 12.21 44.9408 12.9467 45.3208 13.9C45.7008 14.8533 45.8441 15.9767 45.7508 17.27H43.3608V16.39C43.3541 15.2167 43.1474 14.36 42.7408 13.82C42.3341 13.28 41.6941 13.01 40.8208 13.01C39.8341 13.01 39.1008 13.3167 38.6208 13.93C38.1408 14.5367 37.9008 15.4267 37.9008 16.6C37.9008 17.6933 38.1408 18.54 38.6208 19.14C39.1008 19.74 39.8008 20.04 40.7208 20.04C41.3141 20.04 41.8241 19.91 42.2508 19.65C42.6841 19.3833 43.0174 19 43.2508 18.5L45.6308 19.22C45.2174 20.1933 44.5774 20.95 43.7108 21.49C42.8508 22.03 41.9008 22.3 40.8608 22.3ZM37.1408 17.27V15.45H44.5708V17.27H37.1408ZM52.752 22.3C51.672 22.3 50.7287 22.0567 49.922 21.57C49.1154 21.0833 48.4887 20.4133 48.042 19.56C47.602 18.7 47.382 17.7133 47.382 16.6C47.382 15.4667 47.6087 14.4733 48.062 13.62C48.5154 12.7667 49.1454 12.1 49.952 11.62C50.7587 11.14 51.692 10.9 52.752 10.9C53.8387 10.9 54.7854 11.1433 55.592 11.63C56.3987 12.1167 57.0254 12.79 57.472 13.65C57.9187 14.5033 58.142 15.4867 58.142 16.6C58.142 17.72 57.9154 18.71 57.462 19.57C57.0154 20.4233 56.3887 21.0933 55.582 21.58C54.7754 22.06 53.832 22.3 52.752 22.3ZM52.752 20.04C53.712 20.04 54.4254 19.72 54.892 19.08C55.3587 18.44 55.592 17.6133 55.592 16.6C55.592 15.5533 55.3554 14.72 54.882 14.1C54.4087 13.4733 53.6987 13.16 52.752 13.16C52.1054 13.16 51.572 13.3067 51.152 13.6C50.7387 13.8867 50.432 14.29 50.232 14.81C50.032 15.3233 49.932 15.92 49.932 16.6C49.932 17.6467 50.1687 18.4833 50.642 19.11C51.122 19.73 51.8254 20.04 52.752 20.04ZM65.5353 22.3C64.482 22.3 63.5986 22.05 62.8853 21.55C62.172 21.05 61.6353 20.37 61.2753 19.51C60.9153 18.6433 60.7353 17.6733 60.7353 16.6C60.7353 15.5133 60.9153 14.54 61.2753 13.68C61.6353 12.82 62.162 12.1433 62.8553 11.65C63.5553 11.15 64.4186 10.9 65.4453 10.9C66.4653 10.9 67.3486 11.15 68.0953 11.65C68.8486 12.1433 69.432 12.82 69.8453 13.68C70.2586 14.5333 70.4653 15.5067 70.4653 16.6C70.4653 17.68 70.262 18.65 69.8553 19.51C69.4486 20.37 68.8753 21.05 68.1353 21.55C67.3953 22.05 66.5286 22.3 65.5353 22.3ZM60.3253 26.8V11.2H62.4553V18.78H62.7553V26.8H60.3253ZM65.1653 20.14C65.792 20.14 66.3086 19.9833 66.7153 19.67C67.122 19.3567 67.422 18.9333 67.6153 18.4C67.8153 17.86 67.9153 17.26 67.9153 16.6C67.9153 15.9467 67.8153 15.3533 67.6153 14.82C67.4153 14.28 67.1053 13.8533 66.6853 13.54C66.2653 13.22 65.732 13.06 65.0853 13.06C64.472 13.06 63.972 13.21 63.5853 13.51C63.1986 13.8033 62.912 14.2167 62.7253 14.75C62.5453 15.2767 62.4553 15.8933 62.4553 16.6C62.4553 17.3 62.5453 17.9167 62.7253 18.45C62.912 18.9833 63.202 19.4 63.5953 19.7C63.9953 19.9933 64.5186 20.14 65.1653 20.14ZM75.6895 22.3C74.9095 22.3 74.2495 22.1533 73.7095 21.86C73.1695 21.56 72.7595 21.1633 72.4795 20.67C72.2062 20.1767 72.0695 19.6333 72.0695 19.04C72.0695 18.52 72.1562 18.0533 72.3295 17.64C72.5029 17.22 72.7695 16.86 73.1295 16.56C73.4895 16.2533 73.9562 16.0033 74.5295 15.81C74.9629 15.67 75.4695 15.5433 76.0495 15.43C76.6362 15.3167 77.2695 15.2133 77.9495 15.12C78.6362 15.02 79.3529 14.9133 80.0995 14.8L79.2395 15.29C79.2462 14.5433 79.0795 13.9933 78.7395 13.64C78.3995 13.2867 77.8262 13.11 77.0195 13.11C76.5329 13.11 76.0629 13.2233 75.6095 13.45C75.1562 13.6767 74.8395 14.0667 74.6595 14.62L72.4595 13.93C72.7262 13.0167 73.2329 12.2833 73.9795 11.73C74.7329 11.1767 75.7462 10.9 77.0195 10.9C77.9795 10.9 78.8229 11.0567 79.5495 11.37C80.2829 11.6833 80.8262 12.1967 81.1795 12.91C81.3729 13.29 81.4895 13.68 81.5295 14.08C81.5695 14.4733 81.5895 14.9033 81.5895 15.37V22H79.4795V19.66L79.8295 20.04C79.3429 20.82 78.7729 21.3933 78.1195 21.76C77.4729 22.12 76.6629 22.3 75.6895 22.3ZM76.1695 20.38C76.7162 20.38 77.1829 20.2833 77.5695 20.09C77.9562 19.8967 78.2629 19.66 78.4895 19.38C78.7229 19.1 78.8795 18.8367 78.9595 18.59C79.0862 18.2833 79.1562 17.9333 79.1695 17.54C79.1895 17.14 79.1995 16.8167 79.1995 16.57L79.9395 16.79C79.2129 16.9033 78.5895 17.0033 78.0695 17.09C77.5495 17.1767 77.1029 17.26 76.7295 17.34C76.3562 17.4133 76.0262 17.4967 75.7395 17.59C75.4595 17.69 75.2229 17.8067 75.0295 17.94C74.8362 18.0733 74.6862 18.2267 74.5795 18.4C74.4795 18.5733 74.4295 18.7767 74.4295 19.01C74.4295 19.2767 74.4962 19.5133 74.6295 19.72C74.7629 19.92 74.9562 20.08 75.2095 20.2C75.4695 20.32 75.7895 20.38 76.1695 20.38ZM88.733 27.1C88.133 27.1 87.5563 27.0067 87.003 26.82C86.4563 26.6333 85.963 26.3633 85.523 26.01C85.083 25.6633 84.723 25.2433 84.443 24.75L86.663 23.65C86.8696 24.0433 87.1596 24.3333 87.533 24.52C87.913 24.7133 88.3163 24.81 88.743 24.81C89.243 24.81 89.6896 24.72 90.083 24.54C90.4763 24.3667 90.7796 24.1067 90.993 23.76C91.213 23.42 91.3163 22.9933 91.303 22.48V19.41H91.603V11.2H93.713V22.52C93.713 22.7933 93.6996 23.0533 93.673 23.3C93.653 23.5533 93.6163 23.8 93.563 24.04C93.403 24.74 93.0963 25.3133 92.643 25.76C92.1896 26.2133 91.6263 26.55 90.953 26.77C90.2863 26.99 89.5463 27.1 88.733 27.1ZM88.523 22.3C87.5296 22.3 86.663 22.05 85.923 21.55C85.183 21.05 84.6096 20.37 84.203 19.51C83.7963 18.65 83.593 17.68 83.593 16.6C83.593 15.5067 83.7963 14.5333 84.203 13.68C84.6163 12.82 85.1996 12.1433 85.953 11.65C86.7063 11.15 87.593 10.9 88.613 10.9C89.6396 10.9 90.4996 11.15 91.193 11.65C91.893 12.1433 92.423 12.82 92.783 13.68C93.143 14.54 93.323 15.5133 93.323 16.6C93.323 17.6733 93.143 18.6433 92.783 19.51C92.423 20.37 91.8863 21.05 91.173 21.55C90.4596 22.05 89.5763 22.3 88.523 22.3ZM88.893 20.14C89.5396 20.14 90.0596 19.9933 90.453 19.7C90.853 19.4 91.143 18.9833 91.323 18.45C91.5096 17.9167 91.603 17.3 91.603 16.6C91.603 15.8933 91.5096 15.2767 91.323 14.75C91.143 14.2167 90.8596 13.8033 90.473 13.51C90.0863 13.21 89.5863 13.06 88.973 13.06C88.3263 13.06 87.793 13.22 87.373 13.54C86.953 13.8533 86.643 14.28 86.443 14.82C86.243 15.3533 86.143 15.9467 86.143 16.6C86.143 17.26 86.2396 17.86 86.433 18.4C86.633 18.9333 86.9363 19.3567 87.343 19.67C87.7496 19.9833 88.2663 20.14 88.893 20.14ZM101.427 22.3C100.334 22.3 99.3739 22.0633 98.5472 21.59C97.7205 21.1167 97.0739 20.46 96.6072 19.62C96.1472 18.78 95.9172 17.8133 95.9172 16.72C95.9172 15.54 96.1439 14.5167 96.5972 13.65C97.0505 12.7767 97.6805 12.1 98.4872 11.62C99.2939 11.14 100.227 10.9 101.287 10.9C102.407 10.9 103.357 11.1633 104.137 11.69C104.924 12.21 105.507 12.9467 105.887 13.9C106.267 14.8533 106.411 15.9767 106.317 17.27H103.927V16.39C103.921 15.2167 103.714 14.36 103.307 13.82C102.901 13.28 102.261 13.01 101.387 13.01C100.401 13.01 99.6672 13.3167 99.1872 13.93C98.7072 14.5367 98.4672 15.4267 98.4672 16.6C98.4672 17.6933 98.7072 18.54 99.1872 19.14C99.6672 19.74 100.367 20.04 101.287 20.04C101.881 20.04 102.391 19.91 102.817 19.65C103.251 19.3833 103.584 19 103.817 18.5L106.197 19.22C105.784 20.1933 105.144 20.95 104.277 21.49C103.417 22.03 102.467 22.3 101.427 22.3ZM97.7072 17.27V15.45H105.137V17.27H97.7072ZM111.048 22V10.23L108.348 11.88V9.22L111.048 7.6H113.508V22H111.048Z" fill="#F5F5F5"/>
<defs>
<linearGradient id="paint0_linear_240_1691" x1="0" y1="14" x2="129" y2="14" gradientUnits="userSpaceOnUse">
<stop stop-color="#E2FF24"/>
<stop offset="1" stop-color="#24FE41"/>
</linearGradient>
</defs>
</svg>
