<svg width="40" height="29" viewBox="0 0 40 29" fill="none" xmlns="http://www.w3.org/2000/svg">
<path d="M30.9346 16.5907C29.0949 16.5907 27.3711 15.8119 25.805 14.5439L26.1863 12.754L26.2029 12.6877C26.5425 10.7819 27.6199 7.58304 30.9346 7.58304C33.4205 7.58304 35.4425 9.60509 35.4425 12.091C35.4341 14.5687 33.4123 16.5907 30.9346 16.5907ZM30.9346 3.01718C26.6999 3.01718 23.4186 5.76837 22.0845 10.2929C20.0459 7.23505 18.5045 3.56415 17.6014 0.473145H13.0437V12.3313C13.0437 14.6682 11.1377 16.5739 8.80081 16.5739C6.46394 16.5739 4.55818 14.6682 4.55818 12.3313V0.473145H5.19777e-05V12.3313C-0.0165295 17.1875 3.93626 21.1732 8.79219 21.1732C13.6483 21.1732 17.6011 17.1875 17.6011 12.3313V10.3426C18.4877 12.1905 19.5732 14.0549 20.8909 15.7124L18.0981 28.8382H22.7637L24.7855 19.317C26.5589 20.4522 28.5975 21.165 30.9344 21.165C35.9311 21.165 40 17.0714 40 12.0744C40 7.08582 35.9311 3.01718 30.9344 3.01718H30.9346Z" fill="#666666"/>
</svg>
