<svg width="132" height="132" viewBox="0 0 132 132" fill="none" xmlns="http://www.w3.org/2000/svg">
<path d="M50.5247 9.69002C50.5247 8.68558 50.6723 7.85941 50.9675 7.21151C51.2665 6.55977 51.6557 6.0748 52.1349 5.7566C52.6141 5.4384 53.1949 5.2793 53.8773 5.2793C54.8664 5.2793 55.6715 5.65692 56.2926 6.41217C56.9175 7.16742 57.2299 8.24278 57.2299 9.63827C57.2299 11.0491 56.9002 12.1513 56.2408 12.9449C55.6619 13.6465 54.876 13.9972 53.8831 13.9972C52.8825 13.9972 52.0927 13.6503 51.5138 12.9564C50.8544 12.1628 50.5247 11.074 50.5247 9.69002ZM51.9624 9.63252C51.9624 10.6025 52.1464 11.3309 52.5144 11.8178C52.8825 12.3008 53.3387 12.5423 53.8831 12.5423C54.4313 12.5423 54.8856 12.3027 55.246 11.8235C55.6063 11.3405 55.7865 10.6005 55.7865 9.60376C55.7865 8.62616 55.6102 7.9035 55.2575 7.43578C54.9086 6.96806 54.4505 6.7342 53.8831 6.7342C53.3157 6.7342 52.8537 6.96998 52.4972 7.44153C52.1406 7.91308 51.9624 8.64341 51.9624 9.63252Z" fill="#EAA628"/>
<path d="M58.3226 13.8535V5.42306H60.5653C61.4011 5.42306 61.9474 5.46332 62.2042 5.54383C62.6144 5.67417 62.9518 5.95212 63.2163 6.37767C63.4847 6.80321 63.6189 7.35144 63.6189 8.02234C63.6189 8.63191 63.5039 9.14371 63.2738 9.55776C63.0438 9.96797 62.7563 10.2574 62.4112 10.4261C62.0662 10.591 61.472 10.6734 60.6286 10.6734H59.7142V13.8535H58.3226ZM59.7142 6.84922V9.24148H60.4848C61.0023 9.24148 61.3531 9.20505 61.5372 9.13221C61.725 9.05937 61.8784 8.92902 61.9972 8.74117C62.116 8.54948 62.1755 8.31563 62.1755 8.0396C62.1755 7.75973 62.1141 7.52396 61.9914 7.33227C61.8688 7.14058 61.7173 7.01215 61.5372 6.94698C61.357 6.8818 60.9755 6.84922 60.3928 6.84922H59.7142Z" fill="#EAA628"/>
<path d="M70.3816 13.8535H69.059V7.76357C68.5644 8.31946 67.9932 8.72775 67.3453 8.98845V7.52204C67.7133 7.37252 68.0948 7.10608 68.4896 6.7227C68.8845 6.33549 69.1586 5.89078 69.312 5.38856H70.3816V13.8535Z" fill="#EAA628"/>
<path d="M72.3713 7.50479C72.3713 6.7342 72.5093 6.17064 72.7854 5.8141C73.0614 5.45757 73.4275 5.2793 73.8837 5.2793C74.3553 5.2793 74.7291 5.45757 75.0051 5.8141C75.2811 6.17064 75.4191 6.7342 75.4191 7.50479C75.4191 8.27537 75.2811 8.83893 75.0051 9.19547C74.7291 9.55201 74.3629 9.73028 73.9067 9.73028C73.439 9.73028 73.0652 9.55393 72.7854 9.20122C72.5093 8.84468 72.3713 8.2792 72.3713 7.50479ZM73.4064 7.49329C73.4064 8.03001 73.4505 8.38272 73.5387 8.5514C73.6269 8.72009 73.7419 8.80443 73.8837 8.80443C74.0294 8.80443 74.1463 8.72009 74.2345 8.5514C74.3227 8.38272 74.3668 8.03001 74.3668 7.49329C74.3668 6.95656 74.3227 6.60386 74.2345 6.43517C74.1463 6.26649 74.0313 6.18214 73.8895 6.18214C73.7438 6.18214 73.6269 6.26649 73.5387 6.43517C73.4505 6.60386 73.4064 6.95656 73.4064 7.49329ZM74.8958 14.1755H73.9125L77.5986 5.2793H78.5475L74.8958 14.1755ZM77.0351 11.9615C77.0351 11.1909 77.1731 10.6274 77.4491 10.2708C77.729 9.9143 78.0989 9.73603 78.559 9.73603C79.0229 9.73603 79.3928 9.9143 79.6689 10.2708C79.9449 10.6274 80.0829 11.1909 80.0829 11.9615C80.0829 12.7321 79.9449 13.2976 79.6689 13.658C79.3928 14.0145 79.0267 14.1928 78.5705 14.1928C78.1028 14.1928 77.729 14.0145 77.4491 13.658C77.1731 13.3014 77.0351 12.7359 77.0351 11.9615ZM78.0702 11.9558C78.0702 12.4925 78.1124 12.8452 78.1967 13.0139C78.2849 13.1826 78.4018 13.2669 78.5475 13.2669C78.6932 13.2669 78.8101 13.1826 78.8983 13.0139C78.9864 12.8452 79.0305 12.4925 79.0305 11.9558C79.0305 11.419 78.9864 11.0663 78.8983 10.8977C78.8101 10.729 78.6951 10.6446 78.5532 10.6446C78.4037 10.6446 78.2849 10.729 78.1967 10.8977C78.1124 11.0663 78.0702 11.419 78.0702 11.9558Z" fill="#EAA628"/>
<path d="M30.8133 19.5205H101.052V65.6659L65.9328 89.7595L30.8133 65.6659V19.5205Z" fill="#EAA628"/>
<path d="M30.8133 19.5205H101.052L65.9328 44.635L30.8133 19.5205Z" fill="#EEC040"/>
<path d="M64.8451 30.105C65.3132 29.241 66.5531 29.241 67.0212 30.105L72.4951 40.2086C72.6733 40.5376 72.9908 40.7682 73.3588 40.8361L84.6594 42.9199C85.6258 43.0981 86.0089 44.2773 85.3319 44.9895L77.4143 53.3177C77.1565 53.5888 77.0352 53.9621 77.0844 54.3329L78.5947 65.7244C78.7238 66.6986 77.7207 67.4274 76.8342 67.0035L66.4669 62.047C66.1294 61.8856 65.7369 61.8856 65.3994 62.047L55.0321 67.0035C54.1456 67.4274 53.1425 66.6986 53.2716 65.7244L54.7819 54.3329C54.8311 53.9621 54.7098 53.5888 54.452 53.3177L46.5344 44.9895C45.8574 44.2773 46.2405 43.0981 47.2069 42.9199L58.5075 40.8361C58.8755 40.7682 59.193 40.5376 59.3712 40.2086L64.8451 30.105Z" fill="#F5F5F5"/>
<path d="M47.3452 102.478V96.2984H45.5338V95.04H50.3794V96.2984H48.5731V102.478H47.3452Z" fill="#F5F5F5"/>
<path d="M50.3591 100.494V99.0687H52.6575V100.494H50.3591Z" fill="#F5F5F5"/>
<path d="M55.1082 102.478L52.9315 95.04H54.266L55.8084 100.545L57.3001 95.04H58.6092L56.4274 102.478H55.1082Z" fill="#F5F5F5"/>
<path d="M59.2384 102.478V95.04H63.7643V96.2984H60.4663V97.9474H63.5309V99.2006H60.4663V101.225H63.8759V102.478H59.2384Z" fill="#F5F5F5"/>
<path d="M66.2911 102.478V96.2984H64.4797V95.04H69.3253V96.2984H67.519V102.478H66.2911Z" fill="#F5F5F5"/>
<path d="M71.4969 102.478V96.2984H69.6855V95.04H74.5311V96.2984H72.7248V102.478H71.4969Z" fill="#F5F5F5"/>
<path d="M75.3327 102.478V95.04H79.8587V96.2984H76.5606V97.9474H79.6253V99.2006H76.5606V101.225H79.9703V102.478H75.3327Z" fill="#F5F5F5"/>
<path d="M81.0053 95.04H83.2531C83.8214 95.04 84.2493 95.1043 84.5368 95.2328C84.8277 95.358 85.0949 95.5711 85.3385 95.8722C85.582 96.1732 85.7731 96.5639 85.9118 97.0442C86.0505 97.5246 86.1198 98.1216 86.1198 98.8353C86.1198 99.478 86.0471 100.038 85.9017 100.515C85.7562 100.988 85.5718 101.364 85.3486 101.641C85.1253 101.919 84.8547 102.128 84.5368 102.27C84.2222 102.409 83.8163 102.478 83.319 102.478H81.0053V95.04ZM82.2332 96.2984V101.225H83.1567C83.5524 101.225 83.8383 101.188 84.0142 101.113C84.1934 101.039 84.3389 100.927 84.4505 100.779C84.5655 100.626 84.6602 100.388 84.7347 100.063C84.8091 99.7385 84.8463 99.3106 84.8463 98.7795C84.8463 98.2281 84.8074 97.7935 84.7296 97.4755C84.6552 97.1575 84.5368 96.9072 84.3744 96.7246C84.2154 96.5419 84.0209 96.4218 83.7909 96.3643C83.6184 96.3203 83.2852 96.2984 82.7914 96.2984H82.2332Z" fill="#F5F5F5"/>
<path d="M24.0243 121.836L25.5842 112.725H27.051L26.5289 115.77C26.8148 115.509 27.0717 115.331 27.2996 115.235C27.5275 115.136 27.7719 115.086 28.033 115.086C28.6006 115.086 29.0584 115.316 29.4065 115.776C29.7545 116.236 29.9285 116.918 29.9285 117.821C29.9285 118.645 29.7918 119.389 29.5184 120.052C29.249 120.711 28.9093 121.198 28.4991 121.513C28.0889 121.828 27.6725 121.985 27.2499 121.985C26.4751 121.985 25.9053 121.573 25.5407 120.748L25.3543 121.836H24.0243ZM25.9944 119.145C25.9944 119.596 26.098 119.959 26.3052 120.232C26.5165 120.506 26.7589 120.643 27.0323 120.643C27.2519 120.643 27.4695 120.551 27.6849 120.369C27.9004 120.183 28.091 119.851 28.2567 119.375C28.4224 118.894 28.5053 118.391 28.5053 117.864C28.5053 117.38 28.4038 117.007 28.2008 116.746C28.0019 116.485 27.7636 116.354 27.486 116.354C27.0634 116.354 26.7092 116.628 26.4233 117.175C26.1374 117.721 25.9944 118.378 25.9944 119.145Z" fill="#F5F5F5"/>
<path d="M30.9043 115.235H32.3586L32.7253 118.523C32.8165 119.364 32.8683 119.957 32.8807 120.301C33.0713 119.621 33.3323 118.909 33.6638 118.163L34.9627 115.235H36.5103L33.1666 122.482C32.8517 123.162 32.6093 123.615 32.4394 123.843C32.2695 124.075 32.0769 124.245 31.8614 124.353C31.6501 124.461 31.4098 124.515 31.1405 124.515C30.8339 124.515 30.4858 124.448 30.0964 124.316L30.2269 122.986C30.4009 123.048 30.5708 123.079 30.7365 123.079C31.184 123.079 31.5548 122.665 31.849 121.836L30.9043 115.235Z" fill="#F5F5F5"/>
<path fill-rule="evenodd" clip-rule="evenodd" d="M96.4758 107.381C96.4412 107.416 96.4127 110.677 96.4127 114.627V121.809H97.5628H98.713V119.509C98.713 117.983 98.768 117.209 98.8765 117.209C99.2847 117.209 99.6886 117.642 101.156 119.655L102.726 121.809H104.017C104.726 121.809 105.307 121.771 105.307 121.724C105.307 121.677 105.111 121.383 104.871 121.072C103.837 119.731 101.76 116.873 101.696 116.704C101.658 116.602 101.865 116.357 102.157 116.158C103.161 115.476 103.933 114.14 104.145 112.716L104.255 111.981L103.138 112.026C102.034 112.071 102.021 112.077 101.927 112.531C101.692 113.667 100.848 114.616 99.8201 114.902C98.6291 115.232 98.713 115.51 98.713 111.241V107.419L97.626 107.368C97.0282 107.34 96.5107 107.346 96.4758 107.381ZM81.7657 111.855C79.3719 112.158 77.5485 114.215 77.4257 116.749C77.3244 118.836 78.3754 120.632 80.2567 121.585C81.054 121.989 81.3074 122.039 82.5341 122.039C83.6259 122.038 84.0653 121.968 84.6376 121.705C85.718 121.207 86.7961 120.118 87.283 119.033C87.655 118.204 87.6951 117.956 87.6471 116.773C87.6057 115.752 87.5066 115.269 87.2186 114.682C86.2302 112.67 84.0906 111.56 81.7657 111.855ZM63.7173 112.077C63.6653 112.129 63.6802 112.356 63.7502 112.581C63.8679 112.96 65.1747 117.384 65.9101 119.892C66.0831 120.483 66.2768 121.138 66.3406 121.349C66.4481 121.705 66.5341 121.736 67.5498 121.778L68.643 121.823L68.8711 121.011C68.9965 120.564 69.3836 119.096 69.7314 117.748C70.2772 115.632 70.4828 114.957 70.4997 115.228C70.5018 115.263 70.8734 116.741 71.3254 118.512L72.147 121.733L73.2766 121.775L74.4062 121.818L75.4494 118.248C76.0231 116.285 76.6253 114.188 76.7875 113.589C76.9498 112.99 77.1274 112.382 77.1821 112.24C77.2709 112.009 77.1602 111.985 76.1557 112.026L75.0299 112.071L74.4352 114.295C74.1081 115.518 73.6885 117.036 73.5027 117.669L73.1648 118.819L72.3286 115.445L71.4925 112.071H70.4279H69.3633L68.5806 115.248C68.1501 116.995 67.7589 118.463 67.7111 118.511C67.6634 118.559 67.5366 118.268 67.4292 117.865C67.2507 117.194 66.4803 114.441 66.0012 112.761L65.8043 112.071L64.8081 112.027C64.2601 112.002 63.7693 112.025 63.7173 112.077ZM89.205 116.902V121.809H90.2785H91.352V119.197C91.352 116.414 91.4664 115.835 92.1644 115.088C92.6812 114.535 93.0347 114.386 94.0357 114.299L94.9558 114.218V113.145V112.071L94.155 112.104C93.2628 112.141 92.404 112.518 91.7717 113.15L91.352 113.57V112.782V111.995H90.2785H89.205V116.902ZM83.3393 114.014C84.7431 114.367 85.8824 116.068 85.5981 117.385C85.4064 118.272 84.9574 118.975 84.284 119.442C83.7107 119.839 83.5022 119.892 82.523 119.892C81.5129 119.892 81.36 119.85 80.833 119.424C79.8976 118.666 79.647 118.228 79.5742 117.219C79.464 115.698 80.3188 114.411 81.7047 114.013C82.4158 113.808 82.5233 113.809 83.3393 114.014Z" fill="#858585"/>
<path fill-rule="evenodd" clip-rule="evenodd" d="M40.2234 114.252C40.2234 116.757 40.25 118.086 40.3001 118.086C40.3423 118.086 40.3768 118.224 40.3768 118.392C40.3768 118.561 40.4113 118.699 40.4535 118.699C40.4956 118.699 40.5301 118.803 40.5301 118.929C40.5301 119.056 40.5646 119.159 40.6068 119.159C40.649 119.159 40.6835 119.228 40.6835 119.313C40.6835 119.397 40.718 119.466 40.7602 119.466C40.8023 119.466 40.8368 119.535 40.8368 119.619C40.8368 119.704 40.8713 119.773 40.9135 119.773C40.9557 119.773 40.9902 119.825 40.9902 119.889C40.9902 120.04 42.4098 121.46 42.5611 121.46C42.6249 121.46 42.6771 121.494 42.6771 121.536C42.6771 121.578 42.7461 121.613 42.8305 121.613C42.9148 121.613 42.9838 121.647 42.9838 121.69C42.9838 121.732 43.0528 121.766 43.1372 121.766C43.2215 121.766 43.2905 121.801 43.2905 121.843C43.2905 121.885 43.394 121.92 43.5205 121.92C43.6471 121.92 43.7506 121.954 43.7506 121.996C43.7506 122.038 43.8541 122.073 43.9806 122.073C44.1071 122.073 44.2106 122.107 44.2106 122.15C44.2106 122.197 44.6196 122.226 45.2841 122.226C45.9487 122.226 46.3576 122.197 46.3576 122.15C46.3576 122.107 46.4611 122.073 46.5876 122.073C46.7142 122.073 46.8177 122.038 46.8177 121.996C46.8177 121.954 46.9212 121.92 47.0477 121.92C47.1742 121.92 47.2777 121.885 47.2777 121.843C47.2777 121.801 47.3468 121.766 47.4311 121.766C47.5154 121.766 47.5845 121.732 47.5845 121.69C47.5845 121.647 47.6459 121.613 47.7209 121.613C47.7959 121.613 47.907 121.544 47.9678 121.46C48.0286 121.375 48.123 121.306 48.1777 121.306C48.2323 121.306 48.5353 121.048 48.8509 120.732C49.1665 120.417 49.4247 120.114 49.4247 120.059C49.4247 120.004 49.4937 119.91 49.5781 119.849C49.6624 119.788 49.7314 119.677 49.7314 119.602C49.7314 119.527 49.7659 119.466 49.8081 119.466C49.8503 119.466 49.8848 119.362 49.8848 119.236C49.8848 119.109 49.9193 119.006 49.9615 119.006C50.0036 119.006 50.0381 118.937 50.0381 118.852C50.0381 118.768 50.0726 118.699 50.1148 118.699C50.157 118.699 50.1915 118.527 50.1915 118.316C50.1915 118.105 50.226 117.932 50.2682 117.932C50.3146 117.932 50.3448 117.6 50.3448 117.089C50.3448 116.578 50.3751 116.245 50.4215 116.245C50.4637 116.245 50.4982 116.314 50.4982 116.399C50.4982 116.483 50.5327 116.552 50.5749 116.552C50.617 116.552 50.6515 116.621 50.6515 116.706C50.6515 116.79 50.6861 116.859 50.7282 116.859C50.7704 116.859 50.8049 116.928 50.8049 117.012C50.8049 117.097 50.8394 117.166 50.8816 117.166C50.9238 117.166 50.9583 117.227 50.9583 117.302C50.9583 117.377 51.0273 117.488 51.1116 117.549C51.196 117.61 51.265 117.721 51.265 117.796C51.265 117.871 51.2995 117.932 51.3416 117.932C51.3838 117.932 51.4183 117.987 51.4183 118.055C51.4183 118.122 51.5218 118.274 51.6484 118.392C51.7749 118.511 51.8784 118.655 51.8784 118.713C51.8784 118.771 51.9474 118.868 52.0317 118.929C52.1898 119.043 52.2501 119.466 52.1084 119.466C52.0662 119.466 52.0317 119.604 52.0317 119.773C52.0317 119.941 51.9972 120.079 51.9551 120.079C51.9124 120.079 51.8784 120.284 51.8784 120.539C51.8784 120.795 51.8443 120.999 51.8017 120.999C51.7595 120.999 51.725 121.103 51.725 121.229C51.725 121.356 51.6905 121.46 51.6484 121.46C51.6057 121.46 51.5717 121.664 51.5717 121.92C51.5717 122.175 51.5376 122.38 51.495 122.38C51.4528 122.38 51.4183 122.518 51.4183 122.686C51.4183 122.855 51.3838 122.993 51.3416 122.993C51.299 122.993 51.265 123.198 51.265 123.453C51.265 123.709 51.2309 123.913 51.1883 123.913C51.1461 123.913 51.1116 124.051 51.1116 124.22C51.1116 124.389 51.0771 124.527 51.0349 124.527C50.9928 124.527 50.9583 124.699 50.9583 124.91C50.9583 125.121 50.9238 125.293 50.8816 125.293C50.8394 125.293 50.8049 125.466 50.8049 125.677C50.8049 125.888 50.7704 126.06 50.7282 126.06C50.6861 126.06 50.6515 126.198 50.6515 126.367V126.674H51.9222C53.4055 126.674 53.4119 126.671 53.4119 126.027C53.4119 125.792 53.4464 125.6 53.4886 125.6C53.5308 125.6 53.5653 125.462 53.5653 125.293C53.5653 125.125 53.5998 124.987 53.642 124.987C53.6846 124.987 53.7186 124.782 53.7186 124.527C53.7186 124.271 53.7527 124.067 53.7953 124.067C53.8375 124.067 53.872 123.929 53.872 123.76C53.872 123.591 53.9065 123.453 53.9487 123.453C53.9909 123.453 54.0254 123.281 54.0254 123.07C54.0254 122.859 54.0599 122.686 54.102 122.686C54.1442 122.686 54.1787 122.548 54.1787 122.38C54.1787 122.211 54.2132 122.073 54.2554 122.073C54.2976 122.073 54.3321 121.9 54.3321 121.69C54.3321 121.357 54.3525 121.306 54.4854 121.306C54.5698 121.306 54.6388 121.341 54.6388 121.383C54.6388 121.425 54.7078 121.46 54.7921 121.46C54.8765 121.46 54.9455 121.494 54.9455 121.536C54.9455 121.578 55.049 121.613 55.1755 121.613C55.302 121.613 55.4056 121.647 55.4056 121.69C55.4056 121.732 55.4746 121.766 55.5589 121.766C55.6432 121.766 55.7123 121.801 55.7123 121.843C55.7123 121.885 55.8158 121.92 55.9423 121.92C56.0688 121.92 56.1723 121.954 56.1723 121.996C56.1723 122.038 56.3103 122.073 56.479 122.073C56.6477 122.073 56.7857 122.107 56.7857 122.15C56.7857 122.197 57.1947 122.226 57.8592 122.226C58.5238 122.226 58.9327 122.197 58.9327 122.15C58.9327 122.107 59.0707 122.073 59.2394 122.073C59.4081 122.073 59.5461 122.038 59.5461 121.996C59.5461 121.954 59.6496 121.92 59.7762 121.92C59.9027 121.92 60.0062 121.885 60.0062 121.843C60.0062 121.801 60.0752 121.766 60.1595 121.766C60.2439 121.766 60.3129 121.732 60.3129 121.69C60.3129 121.647 60.3819 121.613 60.4663 121.613C60.5506 121.613 60.6196 121.578 60.6196 121.536C60.6196 121.494 60.6718 121.46 60.7356 121.46C60.8869 121.46 62.3065 120.04 62.3065 119.889C62.3065 119.825 62.341 119.773 62.3832 119.773C62.4254 119.773 62.4599 119.704 62.4599 119.619C62.4599 119.535 62.4944 119.466 62.5366 119.466C62.5787 119.466 62.6132 119.397 62.6132 119.313C62.6132 119.228 62.6477 119.159 62.6899 119.159C62.7321 119.159 62.7666 119.09 62.7666 119.006C62.7666 118.921 62.8011 118.852 62.8433 118.852C62.8854 118.852 62.9199 118.749 62.9199 118.622C62.9199 118.496 62.9544 118.392 62.9966 118.392C63.0447 118.392 63.0733 117.907 63.0733 117.089C63.0733 116.271 63.0447 115.785 62.9966 115.785C62.9544 115.785 62.9199 115.682 62.9199 115.555C62.9199 115.429 62.8854 115.325 62.8433 115.325C62.8011 115.325 62.7666 115.222 62.7666 115.095C62.7666 114.969 62.7321 114.865 62.6899 114.865C62.6477 114.865 62.6132 114.804 62.6132 114.729C62.6132 114.654 62.5442 114.543 62.4599 114.482C62.3755 114.421 62.3065 114.318 62.3065 114.252C62.3065 114.186 62.2375 114.083 62.1532 114.022C62.0688 113.961 61.9998 113.866 61.9998 113.811C61.9998 113.689 61.3477 113.025 61.2275 113.025C61.18 113.025 61.0445 112.921 60.9263 112.795C60.8082 112.668 60.6563 112.565 60.5889 112.565C60.5214 112.565 60.4663 112.53 60.4663 112.488C60.4663 112.446 60.3972 112.412 60.3129 112.412C60.2286 112.412 60.1595 112.377 60.1595 112.335C60.1595 112.293 60.0905 112.258 60.0062 112.258C59.9219 112.258 59.8528 112.224 59.8528 112.182C59.8528 112.139 59.7148 112.105 59.5461 112.105C59.3774 112.105 59.2394 112.07 59.2394 112.028C59.2394 111.986 59.0349 111.952 58.7794 111.952C58.5238 111.952 58.3193 111.917 58.3193 111.875C58.3193 111.833 58.1468 111.798 57.9359 111.798C57.725 111.798 57.5525 111.833 57.5525 111.875C57.5525 111.917 57.348 111.952 57.0925 111.952C56.8369 111.952 56.6324 111.986 56.6324 112.028C56.6324 112.07 56.5289 112.105 56.4024 112.105C56.2758 112.105 56.1723 112.139 56.1723 112.182C56.1723 112.224 56.0764 112.258 55.9592 112.258C55.8341 112.258 55.7005 112.322 55.6356 112.412C55.5748 112.496 55.4713 112.565 55.4056 112.565C55.3398 112.565 55.2363 112.634 55.1755 112.718C55.1147 112.803 55.0202 112.872 54.9655 112.872C54.8358 112.872 53.872 113.835 53.872 113.965C53.872 114.02 53.803 114.114 53.7186 114.175C53.6343 114.236 53.5653 114.347 53.5653 114.422C53.5653 114.497 53.5308 114.559 53.4886 114.559C53.4464 114.559 53.4119 114.628 53.4119 114.712C53.4119 114.796 53.3774 114.865 53.3353 114.865C53.2931 114.865 53.2586 114.934 53.2586 115.019C53.2586 115.103 53.2241 115.172 53.1819 115.172C53.1397 115.172 53.1052 115.275 53.1052 115.402C53.1052 115.529 53.0707 115.632 53.0285 115.632C52.9864 115.632 52.9519 115.701 52.9519 115.785C52.9519 115.87 52.9322 115.939 52.9081 115.939C52.8242 115.939 52.6452 115.719 52.6452 115.616C52.6452 115.559 52.5762 115.463 52.4918 115.402C52.4075 115.341 52.3385 115.23 52.3385 115.155C52.3385 115.08 52.3039 115.019 52.2618 115.019C52.2196 115.019 52.1851 114.957 52.1851 114.882C52.1851 114.807 52.1161 114.696 52.0317 114.635C51.9472 114.574 51.8784 114.437 51.8784 114.329C51.8784 114.22 51.8096 114.083 51.725 114.022C51.635 113.957 51.5717 113.823 51.5717 113.698C51.5717 113.581 51.5372 113.485 51.495 113.485C51.4528 113.485 51.4183 113.416 51.4183 113.332C51.4183 113.247 51.3838 113.178 51.3416 113.178C51.2995 113.178 51.265 113.109 51.265 113.025C51.265 112.941 51.2305 112.872 51.1883 112.872C51.1461 112.872 51.1116 112.768 51.1116 112.642C51.1116 112.515 51.0771 112.412 51.0349 112.412C50.9928 112.412 50.9583 112.343 50.9583 112.258C50.9583 112.174 50.9238 112.105 50.8816 112.105C50.8394 112.105 50.8049 112.001 50.8049 111.875C50.8049 111.748 50.7704 111.645 50.7282 111.645C50.6861 111.645 50.6515 111.541 50.6515 111.415C50.6515 111.288 50.617 111.185 50.5749 111.185C50.5327 111.185 50.4982 111.081 50.4982 110.955C50.4982 110.828 50.4637 110.725 50.4215 110.725C50.3793 110.725 50.3448 110.656 50.3448 110.571C50.3448 110.424 50.2937 110.418 49.0413 110.418H47.7378V114.022C47.7378 116.373 47.7111 117.626 47.6611 117.626C47.619 117.626 47.5845 117.729 47.5845 117.856C47.5845 117.982 47.5499 118.086 47.5078 118.086C47.4656 118.086 47.4311 118.155 47.4311 118.239C47.4311 118.323 47.3966 118.392 47.3544 118.392C47.3122 118.392 47.2777 118.445 47.2777 118.51C47.2777 118.654 46.7852 119.159 46.6455 119.159C46.5901 119.159 46.4951 119.228 46.4343 119.313C46.3693 119.403 46.2358 119.466 46.1106 119.466C45.9935 119.466 45.8975 119.5 45.8975 119.543C45.8975 119.587 45.642 119.619 45.2841 119.619C44.9263 119.619 44.6707 119.587 44.6707 119.543C44.6707 119.5 44.5748 119.466 44.4576 119.466C44.3325 119.466 44.1989 119.403 44.134 119.313C44.0732 119.228 43.9782 119.159 43.9228 119.159C43.792 119.159 43.2905 118.658 43.2905 118.527C43.2905 118.472 43.2215 118.377 43.1372 118.316C43.0471 118.251 42.9838 118.117 42.9838 117.992C42.9838 117.875 42.9493 117.779 42.9071 117.779C42.8571 117.779 42.8305 116.501 42.8305 114.098V110.418H41.5269H40.2234V114.252ZM58.7794 114.635C58.7794 114.677 58.869 114.712 58.9786 114.712C59.1012 114.712 59.2607 114.8 59.3928 114.942C59.5109 115.068 59.6628 115.172 59.7302 115.172C59.7977 115.172 59.8528 115.233 59.8528 115.308C59.8528 115.383 59.9219 115.495 60.0062 115.555C60.0905 115.616 60.1595 115.727 60.1595 115.802C60.1595 115.877 60.1941 115.939 60.2362 115.939C60.2784 115.939 60.3129 116.008 60.3129 116.092C60.3129 116.176 60.3474 116.245 60.3896 116.245C60.436 116.245 60.4663 116.578 60.4663 117.089C60.4663 117.6 60.436 117.932 60.3896 117.932C60.3474 117.932 60.3129 118.001 60.3129 118.086C60.3129 118.17 60.2784 118.239 60.2362 118.239C60.1941 118.239 60.1595 118.292 60.1595 118.356C60.1595 118.508 59.5086 119.159 59.3564 119.159C59.2921 119.159 59.2394 119.194 59.2394 119.236C59.2394 119.278 59.1704 119.313 59.0861 119.313C59.0017 119.313 58.9327 119.347 58.9327 119.389C58.9327 119.431 58.8637 119.466 58.7794 119.466C58.695 119.466 58.626 119.5 58.626 119.543C58.626 119.588 58.3448 119.619 57.9359 119.619C57.527 119.619 57.2458 119.588 57.2458 119.543C57.2458 119.5 57.1078 119.466 56.9391 119.466C56.7704 119.466 56.6324 119.431 56.6324 119.389C56.6324 119.347 56.5634 119.313 56.479 119.313C56.3947 119.313 56.3257 119.278 56.3257 119.236C56.3257 119.194 56.2567 119.159 56.1723 119.159C56.088 119.159 56.019 119.125 56.019 119.083C56.019 119.04 55.95 119.006 55.8656 119.006C55.7813 119.006 55.7123 118.971 55.7123 118.929C55.7123 118.887 55.659 118.852 55.5938 118.852C55.5286 118.852 55.3906 118.768 55.2871 118.664C55.1424 118.52 55.0988 118.395 55.0988 118.128C55.0988 117.936 55.1333 117.779 55.1755 117.779C55.2177 117.779 55.2522 117.606 55.2522 117.396C55.2522 117.185 55.2867 117.012 55.3289 117.012C55.371 117.012 55.4056 116.909 55.4056 116.782C55.4056 116.656 55.4401 116.552 55.4822 116.552C55.5244 116.552 55.5589 116.449 55.5589 116.322C55.5589 116.196 55.5934 116.092 55.6356 116.092C55.6778 116.092 55.7123 116.031 55.7123 115.956C55.7123 115.881 55.7813 115.77 55.8656 115.709C55.95 115.648 56.019 115.553 56.019 115.498C56.019 115.358 56.5247 114.865 56.6682 114.865C56.7328 114.865 56.7857 114.831 56.7857 114.789C56.7857 114.746 56.8548 114.712 56.9391 114.712C57.0234 114.712 57.0925 114.677 57.0925 114.635C57.0925 114.589 57.4247 114.559 57.9359 114.559C58.4471 114.559 58.7794 114.589 58.7794 114.635Z" fill="#96D953"/>
</svg>
