<svg width="113" height="32" viewBox="0 0 113 32" fill="none" xmlns="http://www.w3.org/2000/svg">
<path fill-rule="evenodd" clip-rule="evenodd" d="M60.046 5.23045L55.3254 8.14291C54.9466 7.5546 54.472 7.02872 53.8615 6.5189C53.2515 6.00846 52.5056 5.51409 51.4013 5.19398C50.297 4.8745 48.8331 4.73051 47.2511 4.78613C45.6679 4.84236 43.9666 5.09943 42.0633 5.91514C40.16 6.729 38.0552 8.1015 36.2248 9.75331L39.7422 0.40353H30.9165L24.9544 4.47653L26.2329 0.40353H17.4399L10.9643 4.69282L0.513901 31.9605H8.9732L15.2523 27.4944L13.6586 32H22.2928L26.8113 28.3151C27.0628 28.98 27.5411 29.5343 28.6609 30.1739C29.7806 30.8147 31.5425 31.5439 33.5706 31.7367C35.5982 31.9289 37.8927 31.586 39.8423 30.8302C41.792 30.0744 43.3981 28.9065 44.3875 28.2088C45.3768 27.5124 45.7494 27.2868 46.1245 27.0656L44.3287 31.6292H52.8832L58.71 26.882C58.6099 27.7064 58.8429 28.5647 59.4583 29.3156C60.0726 30.0652 61.0675 30.706 62.4419 31.0848C63.8168 31.4648 65.5712 31.5835 67.173 31.4624C68.776 31.3443 70.2251 30.9865 71.715 30.2264C73.2031 29.467 74.7288 28.3027 76.013 26.924L74.4403 31.4272H91.8532L98.8992 26.358L100.733 20.4571H94.1026L104.071 10.6432L106.205 5.21376H89.445L87.3761 6.00969L87.6257 5.22426H78.821L80.7354 0H73.1833L66.429 5.22982H60.046V5.23045ZM107.99 9.61242H108.594V8.38638H108.752C109.107 8.38638 109.284 8.54458 109.589 9.13103L109.836 9.61242H110.583L110.233 9.013C109.926 8.48587 109.852 8.40369 109.601 8.30667C110.096 8.23622 110.404 7.91673 110.404 7.47489C110.404 6.93355 110.043 6.62828 109.403 6.62704H107.991V9.61242H107.99ZM108.594 7.91673V7.10226H109.146C109.542 7.10226 109.764 7.24006 109.764 7.48663C109.764 7.80426 109.59 7.9124 109.084 7.91549L108.84 7.91735H108.594V7.91673ZM109.258 5.29471C108.888 5.29495 108.523 5.36796 108.182 5.50956C107.841 5.65116 107.531 5.85856 107.271 6.11993C107.01 6.38129 106.803 6.69149 106.662 7.03277C106.522 7.37406 106.449 7.73974 106.45 8.10892C106.45 8.47802 106.522 8.8436 106.663 9.18478C106.804 9.52596 107.01 9.83605 107.271 10.0973C107.532 10.3586 107.841 10.566 108.182 10.7075C108.523 10.8491 108.888 10.9222 109.258 10.9225C110.003 10.9214 110.717 10.6244 111.244 10.0968C111.77 9.56921 112.065 8.85421 112.065 8.10892C112.065 7.73979 111.993 7.37417 111.852 7.03296C111.712 6.69175 111.505 6.38162 111.244 6.12029C110.983 5.85896 110.674 5.65154 110.333 5.50989C109.992 5.36824 109.627 5.29512 109.258 5.29471ZM109.262 5.84408C109.559 5.84481 109.853 5.90399 110.127 6.01823C110.401 6.13248 110.65 6.29955 110.859 6.50992C111.068 6.72028 111.234 6.96982 111.347 7.24429C111.46 7.51875 111.518 7.81276 111.517 8.10954C111.518 8.70858 111.281 9.2835 110.858 9.70795C110.435 10.1324 109.862 10.3717 109.262 10.3731C108.017 10.3731 107.009 9.35906 107.008 8.10892C107.007 7.81215 107.065 7.51813 107.178 7.24367C107.291 6.9692 107.457 6.71967 107.666 6.50934C107.875 6.299 108.124 6.13199 108.398 6.01784C108.672 5.90369 108.966 5.84465 109.262 5.84408Z" fill="black"/>
<path fill-rule="evenodd" clip-rule="evenodd" d="M22.0283 10.3943L25.4975 0.937614H17.9089L8.1037 26.6356H15.7566L19.7498 15.9974H25.4549L21.5184 26.5337H29.2739L38.9116 0.891886H31.2285L27.551 10.3943H22.0283ZM54.9478 8.82468C54.7847 8.25554 54.4503 7.7933 53.7279 7.23899C52.7559 6.4927 51.6229 5.98377 50.4194 5.75279C48.9437 5.47038 47.1034 5.5538 45.9441 5.66627C44.7848 5.78059 44.3071 5.92272 43.8381 6.06238C43.369 6.20143 42.9086 6.33615 42.3617 6.57901C41.8148 6.82187 41.1814 7.17225 40.5832 7.57578C39.9861 7.97945 39.4257 8.435 38.9086 8.93715C38.0088 10.8929 37.1639 12.8734 36.3749 14.8764C35.579 16.8916 34.8281 18.9457 34.479 20.1637C34.1305 21.3817 34.1836 21.7642 34.1867 22.1393C34.1904 22.5144 34.1428 22.8815 34.3313 23.3851C34.5198 23.8863 34.9431 24.5222 35.49 25.0073C36.0357 25.4912 36.7061 25.8242 37.52 26.0671C38.3351 26.3087 39.2948 26.4595 40.3373 26.546C41.3804 26.6319 42.5045 26.6548 43.7077 26.5145C44.9108 26.3755 46.1925 26.0739 47.3061 25.5153C48.4196 24.9554 49.3651 24.1378 50.1481 23.0724C50.931 22.0077 51.5509 20.6958 51.9068 19.3226H45.7296C45.15 20.3064 44.49 21.2587 44.0525 21.7846C43.6143 22.3124 43.3968 22.4149 43.1645 22.5175C42.9321 22.6226 42.6831 22.7264 42.3525 22.6949C42.0225 22.6621 41.6097 22.4922 41.4163 21.9756C41.2234 21.4602 41.2488 20.5994 41.415 19.8003C41.5736 19.0231 41.8817 18.2842 42.3222 17.6245H52.4846C52.8909 16.4502 53.3126 15.2813 53.7496 14.1182C54.184 12.9725 54.637 11.8601 54.8681 10.9659C55.0998 10.0699 55.1085 9.39383 54.9478 8.82468ZM48.3745 12.318C48.204 12.7185 48.0408 13.0763 47.853 13.4199H43.906C44.1064 12.8691 44.3265 12.3258 44.566 11.7909C44.7965 11.2718 45.027 10.7836 45.3552 10.4196C45.6839 10.0563 46.1103 9.81775 46.5948 9.6991C47.0793 9.58045 47.6206 9.58169 48.0149 9.82331C48.4091 10.0656 48.6569 10.5476 48.6909 11.0104C48.7249 11.4739 48.5457 11.9176 48.3745 12.318ZM63.3373 13.7233C63.7284 12.6536 64.2766 11.6475 65.0861 11.1408C65.8963 10.6347 67.0463 10.66 68.1951 10.6848L69.9019 5.90666H60.0256L52.2238 26.2865H58.7365L63.3373 13.7233ZM65.6985 22.8815C65.8097 23.9568 66.272 24.6353 66.9938 25.1581C67.7155 25.6784 68.6944 26.0418 70.2492 26.255C71.8028 26.4688 73.9316 26.5324 75.4728 26.2778C77.0165 26.022 77.9725 25.4485 78.7728 24.7342C79.573 24.0186 80.2837 23.193 80.6557 22.2141L83.1869 15.5568H77.2328L75.4067 20.4764C75.2232 20.9714 75.0372 21.4892 74.6306 21.8248C74.2239 22.1628 73.6882 22.3439 73.2679 22.2796C72.8465 22.2153 72.5437 21.9076 72.4059 21.5529C72.2681 21.1982 72.3324 20.8132 72.4615 20.4727L76.144 10.8114H84.8375L86.7902 5.77689H77.9855L80.0025 0.501953H73.4379L66.3746 19.0353C65.8722 20.3497 65.5885 21.805 65.6985 22.8815ZM83.8314 21.0072L82.1092 26.0597H98.3777L100.074 21.0072H92.4841L103.489 10.6125L105.385 5.64093H89.4462L87.5503 10.6125H95.2168L83.8314 21.0072Z" fill="#F7E946"/>
</svg>
